<?xml version="1.0" encoding="UTF-8"?><svg xmlns="http://www.w3.org/2000/svg" xmlns:xlink="http://www.w3.org/1999/xlink" contentScriptType="text/ecmascript" width="150" zoomAndPan="magnify" contentStyleType="text/css" viewBox="0 0 150 149.999998" height="149.999998" preserveAspectRatio="xMidYMid meet" version="1.0"><defs><clipPath id="clip-0"><path d="M 23.148438 31.144531 L 126.648438 31.144531 L 126.648438 118.894531 L 23.148438 118.894531 Z M 23.148438 31.144531 " clip-rule="nonzero"/></clipPath><clipPath id="clip-1"><path d="M 23.148438 58 L 126.648438 58 L 126.648438 118.894531 L 23.148438 118.894531 Z M 23.148438 58 " clip-rule="nonzero"/></clipPath></defs><g clip-path="url(#clip-0)"><path fill="rgb(100%, 100%, 100%)" d="M 27.4375 114.839844 L 122.59375 114.839844 L 122.59375 45.949219 L 70.300781 45.949219 C 69.5 45.949219 68.816406 45.480469 68.484375 44.808594 L 62.984375 35.257812 L 27.203125 35.429688 Z M 124.617188 118.894531 L 25.429688 118.894531 C 24.324219 118.894531 23.40625 117.988281 23.40625 116.867188 L 25.429688 116.867188 L 23.421875 116.867188 L 23.171875 33.609375 C 23.171875 33.550781 23.171875 33.492188 23.171875 33.433594 C 23.160156 32.308594 24.058594 31.40625 25.179688 31.390625 L 25.179688 33.417969 L 25.179688 31.40625 L 63.957031 31.214844 C 64.714844 31.144531 65.484375 31.507812 65.890625 32.222656 L 71.464844 41.894531 L 124.617188 41.894531 C 125.722656 41.894531 126.640625 42.796875 126.640625 43.921875 L 126.640625 116.867188 C 126.640625 117.988281 125.722656 118.894531 124.617188 118.894531 Z M 124.617188 118.894531 " fill-opacity="1" fill-rule="nonzero"/></g><g clip-path="url(#clip-1)"><path fill="rgb(100%, 100%, 100%)" d="M 35.585938 58.449219 L 114.300781 58.449219 C 117.691406 58.449219 120.777344 59.847656 123.015625 62.078125 C 125.242188 64.328125 126.640625 67.417969 126.640625 70.816406 L 126.640625 116.867188 C 126.640625 117.988281 125.722656 118.894531 124.617188 118.894531 L 25.269531 118.894531 C 24.148438 118.894531 23.246094 117.988281 23.246094 116.867188 L 23.246094 70.816406 C 23.246094 67.417969 24.628906 64.328125 26.867188 62.078125 C 29.09375 59.847656 32.179688 58.449219 35.585938 58.449219 Z M 114.300781 62.503906 L 35.585938 62.503906 C 33.300781 62.503906 31.234375 63.4375 29.71875 64.953125 C 28.222656 66.457031 27.289062 68.527344 27.289062 70.816406 L 27.289062 114.839844 L 122.59375 114.839844 L 122.59375 70.816406 C 122.59375 68.527344 121.664062 66.457031 120.152344 64.953125 C 118.652344 63.4375 116.585938 62.503906 114.300781 62.503906 Z M 114.300781 62.503906 " fill-opacity="1" fill-rule="nonzero"/></g><path fill="rgb(100%, 100%, 100%)" d="M 70.054688 108.84375 L 70.054688 75.585938 L 57.960938 75.585938 C 56.84375 75.585938 55.941406 74.683594 55.941406 73.558594 L 55.941406 68.496094 C 55.941406 67.375 56.84375 66.46875 57.960938 66.46875 L 91.921875 66.46875 C 93.027344 66.46875 93.945312 67.375 93.945312 68.496094 L 93.945312 73.558594 C 93.945312 74.683594 93.027344 75.585938 91.921875 75.585938 L 79.757812 75.585938 L 79.757812 108.84375 C 79.757812 109.964844 78.855469 110.871094 77.738281 110.871094 L 72.078125 110.871094 C 70.957031 110.871094 70.054688 109.964844 70.054688 108.84375 Z M 74.097656 73.558594 L 74.097656 106.832031 L 75.730469 106.832031 L 75.730469 73.558594 C 75.730469 72.449219 76.628906 71.53125 77.738281 71.53125 L 89.902344 71.53125 L 89.902344 70.523438 L 59.984375 70.523438 L 59.984375 71.53125 L 72.078125 71.53125 C 73.195312 71.53125 74.097656 72.449219 74.097656 73.558594 Z M 74.097656 73.558594 " fill-opacity="1" fill-rule="nonzero"/></svg>