<?xml version="1.0" encoding="UTF-8"?><svg xmlns="http://www.w3.org/2000/svg" xmlns:xlink="http://www.w3.org/1999/xlink" contentScriptType="text/ecmascript" width="150" zoomAndPan="magnify" contentStyleType="text/css" viewBox="0 0 150 149.999998" height="149.999998" preserveAspectRatio="xMidYMid meet" version="1.0"><defs><clipPath id="clip-0"><path d="M 24.570312 34.277344 L 125.070312 34.277344 L 125.070312 116.027344 L 24.570312 116.027344 Z M 24.570312 34.277344 " clip-rule="nonzero"/></clipPath></defs><g clip-path="url(#clip-0)"><path fill="rgb(100%, 100%, 100%)" d="M 123.125 34.277344 L 26.515625 34.277344 C 25.449219 34.277344 24.585938 35.148438 24.585938 36.226562 L 24.585938 114.082031 C 24.585938 115.160156 25.449219 116.027344 26.515625 116.027344 L 123.125 116.027344 C 124.191406 116.027344 125.054688 115.160156 125.054688 114.082031 L 125.054688 36.226562 C 125.054688 35.148438 124.191406 34.277344 123.125 34.277344 Z M 28.449219 49.851562 L 121.191406 49.851562 L 121.191406 100.457031 L 28.449219 100.457031 Z M 121.191406 38.171875 L 121.191406 45.957031 L 28.449219 45.957031 L 28.449219 38.171875 Z M 28.449219 112.136719 L 28.449219 104.351562 L 121.191406 104.351562 L 121.191406 112.136719 Z M 28.449219 112.136719 " fill-opacity="1" fill-rule="nonzero"/></g><path fill="rgb(100%, 100%, 100%)" d="M 115.394531 40.117188 L 119.257812 40.117188 L 119.257812 44.011719 L 115.394531 44.011719 Z M 115.394531 40.117188 " fill-opacity="1" fill-rule="nonzero"/><path fill="rgb(100%, 100%, 100%)" d="M 107.667969 40.117188 L 111.53125 40.117188 L 111.53125 44.011719 L 107.667969 44.011719 Z M 107.667969 40.117188 " fill-opacity="1" fill-rule="nonzero"/><path fill="rgb(100%, 100%, 100%)" d="M 99.9375 40.117188 L 103.800781 40.117188 L 103.800781 44.011719 L 99.9375 44.011719 Z M 99.9375 40.117188 " fill-opacity="1" fill-rule="nonzero"/><path fill="rgb(100%, 100%, 100%)" d="M 92.210938 40.117188 L 96.074219 40.117188 L 96.074219 44.011719 L 92.210938 44.011719 Z M 92.210938 40.117188 " fill-opacity="1" fill-rule="nonzero"/><path fill="rgb(100%, 100%, 100%)" d="M 84.480469 40.117188 L 88.34375 40.117188 L 88.34375 44.011719 L 84.480469 44.011719 Z M 84.480469 40.117188 " fill-opacity="1" fill-rule="nonzero"/><path fill="rgb(100%, 100%, 100%)" d="M 76.753906 40.117188 L 80.617188 40.117188 L 80.617188 44.011719 L 76.753906 44.011719 Z M 76.753906 40.117188 " fill-opacity="1" fill-rule="nonzero"/><path fill="rgb(100%, 100%, 100%)" d="M 69.023438 40.117188 L 72.886719 40.117188 L 72.886719 44.011719 L 69.023438 44.011719 Z M 69.023438 40.117188 " fill-opacity="1" fill-rule="nonzero"/><path fill="rgb(100%, 100%, 100%)" d="M 61.296875 40.117188 L 65.160156 40.117188 L 65.160156 44.011719 L 61.296875 44.011719 Z M 61.296875 40.117188 " fill-opacity="1" fill-rule="nonzero"/><path fill="rgb(100%, 100%, 100%)" d="M 53.566406 40.117188 L 57.429688 40.117188 L 57.429688 44.011719 L 53.566406 44.011719 Z M 53.566406 40.117188 " fill-opacity="1" fill-rule="nonzero"/><path fill="rgb(100%, 100%, 100%)" d="M 45.839844 40.117188 L 49.703125 40.117188 L 49.703125 44.011719 L 45.839844 44.011719 Z M 45.839844 40.117188 " fill-opacity="1" fill-rule="nonzero"/><path fill="rgb(100%, 100%, 100%)" d="M 38.109375 40.117188 L 41.972656 40.117188 L 41.972656 44.011719 L 38.109375 44.011719 Z M 38.109375 40.117188 " fill-opacity="1" fill-rule="nonzero"/><path fill="rgb(100%, 100%, 100%)" d="M 30.382812 40.117188 L 34.246094 40.117188 L 34.246094 44.011719 L 30.382812 44.011719 Z M 30.382812 40.117188 " fill-opacity="1" fill-rule="nonzero"/><path fill="rgb(100%, 100%, 100%)" d="M 115.394531 106.296875 L 119.257812 106.296875 L 119.257812 110.1875 L 115.394531 110.1875 Z M 115.394531 106.296875 " fill-opacity="1" fill-rule="nonzero"/><path fill="rgb(100%, 100%, 100%)" d="M 107.667969 106.296875 L 111.53125 106.296875 L 111.53125 110.1875 L 107.667969 110.1875 Z M 107.667969 106.296875 " fill-opacity="1" fill-rule="nonzero"/><path fill="rgb(100%, 100%, 100%)" d="M 99.9375 106.296875 L 103.800781 106.296875 L 103.800781 110.1875 L 99.9375 110.1875 Z M 99.9375 106.296875 " fill-opacity="1" fill-rule="nonzero"/><path fill="rgb(100%, 100%, 100%)" d="M 92.210938 106.296875 L 96.074219 106.296875 L 96.074219 110.1875 L 92.210938 110.1875 Z M 92.210938 106.296875 " fill-opacity="1" fill-rule="nonzero"/><path fill="rgb(100%, 100%, 100%)" d="M 84.480469 106.296875 L 88.34375 106.296875 L 88.34375 110.1875 L 84.480469 110.1875 Z M 84.480469 106.296875 " fill-opacity="1" fill-rule="nonzero"/><path fill="rgb(100%, 100%, 100%)" d="M 76.753906 106.296875 L 80.617188 106.296875 L 80.617188 110.1875 L 76.753906 110.1875 Z M 76.753906 106.296875 " fill-opacity="1" fill-rule="nonzero"/><path fill="rgb(100%, 100%, 100%)" d="M 69.023438 106.296875 L 72.886719 106.296875 L 72.886719 110.1875 L 69.023438 110.1875 Z M 69.023438 106.296875 " fill-opacity="1" fill-rule="nonzero"/><path fill="rgb(100%, 100%, 100%)" d="M 61.296875 106.296875 L 65.160156 106.296875 L 65.160156 110.1875 L 61.296875 110.1875 Z M 61.296875 106.296875 " fill-opacity="1" fill-rule="nonzero"/><path fill="rgb(100%, 100%, 100%)" d="M 53.566406 106.296875 L 57.429688 106.296875 L 57.429688 110.1875 L 53.566406 110.1875 Z M 53.566406 106.296875 " fill-opacity="1" fill-rule="nonzero"/><path fill="rgb(100%, 100%, 100%)" d="M 45.839844 106.296875 L 49.703125 106.296875 L 49.703125 110.1875 L 45.839844 110.1875 Z M 45.839844 106.296875 " fill-opacity="1" fill-rule="nonzero"/><path fill="rgb(100%, 100%, 100%)" d="M 38.109375 106.296875 L 41.972656 106.296875 L 41.972656 110.1875 L 38.109375 110.1875 Z M 38.109375 106.296875 " fill-opacity="1" fill-rule="nonzero"/><path fill="rgb(100%, 100%, 100%)" d="M 30.382812 106.296875 L 34.246094 106.296875 L 34.246094 110.1875 L 30.382812 110.1875 Z M 30.382812 106.296875 " fill-opacity="1" fill-rule="nonzero"/><path fill="rgb(100%, 100%, 100%)" d="M 91.140625 73.410156 L 67.957031 61.734375 C 67.355469 61.433594 66.644531 61.464844 66.074219 61.816406 C 65.507812 62.175781 65.160156 62.800781 65.160156 63.476562 L 65.160156 86.832031 C 65.160156 87.507812 65.507812 88.132812 66.074219 88.488281 C 66.386719 88.679688 66.738281 88.777344 67.09375 88.777344 C 67.386719 88.777344 67.683594 88.710938 67.957031 88.574219 L 91.140625 76.894531 C 91.796875 76.5625 92.210938 75.890625 92.210938 75.152344 C 92.210938 74.414062 91.796875 73.742188 91.140625 73.410156 Z M 69.023438 83.683594 L 69.023438 66.625 L 85.957031 75.152344 Z M 69.023438 83.683594 " fill-opacity="1" fill-rule="nonzero"/></svg>