<?xml version="1.0" encoding="UTF-8"?><svg xmlns="http://www.w3.org/2000/svg" xmlns:xlink="http://www.w3.org/1999/xlink" contentScriptType="text/ecmascript" width="150" zoomAndPan="magnify" contentStyleType="text/css" viewBox="0 0 150 149.999998" height="149.999998" preserveAspectRatio="xMidYMid meet" version="1.0"><defs><clipPath id="clip-0"><path d="M 26.027344 29.578125 L 124.277344 29.578125 L 124.277344 120.328125 L 26.027344 120.328125 Z M 26.027344 29.578125 " clip-rule="nonzero"/></clipPath></defs><g clip-path="url(#clip-0)"><path fill="rgb(100%, 100%, 100%)" d="M 110.203125 43.539062 L 78.660156 43.539062 C 77.410156 43.539062 76.214844 43.300781 75.066406 42.816406 C 73.917969 42.335938 72.90625 41.652344 72.035156 40.765625 L 65.21875 33.785156 C 63.894531 32.433594 62.355469 31.394531 60.609375 30.664062 C 58.859375 29.933594 57.035156 29.574219 55.140625 29.578125 L 40.105469 29.578125 C 39.183594 29.578125 38.273438 29.667969 37.371094 29.847656 C 36.46875 30.027344 35.589844 30.289062 34.742188 30.640625 C 33.890625 30.992188 33.082031 31.421875 32.316406 31.933594 C 31.550781 32.441406 30.84375 33.019531 30.191406 33.667969 C 29.542969 34.316406 28.960938 35.023438 28.449219 35.785156 C 27.9375 36.546875 27.503906 37.351562 27.152344 38.199219 C 26.800781 39.042969 26.535156 39.917969 26.355469 40.816406 C 26.175781 41.714844 26.085938 42.625 26.085938 43.539062 L 26.085938 106.367188 C 26.085938 107.285156 26.175781 108.191406 26.355469 109.089844 C 26.535156 109.992188 26.800781 110.863281 27.152344 111.710938 C 27.503906 112.558594 27.9375 113.363281 28.449219 114.125 C 28.960938 114.886719 29.542969 115.589844 30.191406 116.238281 C 30.84375 116.886719 31.550781 117.464844 32.316406 117.976562 C 33.082031 118.484375 33.890625 118.914062 34.742188 119.265625 C 35.589844 119.617188 36.46875 119.882812 37.371094 120.0625 C 38.273438 120.238281 39.183594 120.328125 40.105469 120.328125 L 110.203125 120.328125 C 111.121094 120.328125 112.035156 120.238281 112.9375 120.0625 C 113.839844 119.882812 114.714844 119.617188 115.566406 119.265625 C 116.417969 118.914062 117.226562 118.484375 117.992188 117.976562 C 118.757812 117.464844 119.464844 116.886719 120.113281 116.238281 C 120.765625 115.589844 121.347656 114.886719 121.859375 114.125 C 122.371094 113.363281 122.800781 112.558594 123.152344 111.710938 C 123.507812 110.863281 123.773438 109.992188 123.953125 109.089844 C 124.132812 108.191406 124.222656 107.285156 124.222656 106.367188 L 124.222656 57.503906 C 124.222656 56.585938 124.132812 55.675781 123.953125 54.777344 C 123.773438 53.878906 123.507812 53.007812 123.152344 52.160156 C 122.800781 51.3125 122.371094 50.507812 121.859375 49.746094 C 121.347656 48.984375 120.765625 48.277344 120.113281 47.628906 C 119.464844 46.980469 118.757812 46.402344 117.992188 45.894531 C 117.226562 45.382812 116.417969 44.953125 115.566406 44.601562 C 114.714844 44.253906 113.839844 43.988281 112.9375 43.808594 C 112.035156 43.628906 111.121094 43.539062 110.203125 43.539062 Z M 71.648438 99.386719 L 54.125 99.386719 C 53.660156 99.386719 53.210938 99.296875 52.785156 99.121094 C 52.355469 98.945312 51.976562 98.691406 51.644531 98.363281 C 51.316406 98.035156 51.0625 97.660156 50.886719 97.230469 C 50.707031 96.804688 50.621094 96.359375 50.621094 95.894531 C 50.621094 95.433594 50.707031 94.988281 50.886719 94.5625 C 51.0625 94.132812 51.316406 93.753906 51.644531 93.429688 C 51.976562 93.101562 52.355469 92.847656 52.785156 92.671875 C 53.210938 92.496094 53.660156 92.40625 54.125 92.40625 L 71.648438 92.40625 C 72.113281 92.40625 72.5625 92.496094 72.988281 92.671875 C 73.417969 92.847656 73.796875 93.101562 74.128906 93.429688 C 74.457031 93.753906 74.707031 94.132812 74.886719 94.5625 C 75.066406 94.988281 75.152344 95.433594 75.152344 95.894531 C 75.152344 96.359375 75.066406 96.804688 74.886719 97.230469 C 74.707031 97.660156 74.457031 98.035156 74.128906 98.363281 C 73.796875 98.691406 73.417969 98.945312 72.988281 99.121094 C 72.5625 99.296875 72.113281 99.386719 71.648438 99.386719 Z M 96.183594 85.425781 L 54.125 85.425781 C 53.660156 85.425781 53.210938 85.335938 52.785156 85.160156 C 52.355469 84.980469 51.976562 84.730469 51.644531 84.402344 C 51.316406 84.074219 51.0625 83.699219 50.886719 83.269531 C 50.707031 82.84375 50.621094 82.398438 50.621094 81.933594 C 50.621094 81.472656 50.707031 81.027344 50.886719 80.597656 C 51.0625 80.171875 51.316406 79.792969 51.644531 79.464844 C 51.976562 79.140625 52.355469 78.886719 52.785156 78.710938 C 53.210938 78.53125 53.660156 78.445312 54.125 78.445312 L 96.183594 78.445312 C 96.648438 78.445312 97.09375 78.53125 97.523438 78.710938 C 97.953125 78.886719 98.332031 79.140625 98.660156 79.464844 C 98.988281 79.792969 99.242188 80.171875 99.421875 80.597656 C 99.597656 81.027344 99.6875 81.472656 99.6875 81.933594 C 99.6875 82.398438 99.597656 82.84375 99.421875 83.269531 C 99.242188 83.699219 98.988281 84.074219 98.660156 84.402344 C 98.332031 84.730469 97.953125 84.980469 97.523438 85.160156 C 97.09375 85.335938 96.648438 85.425781 96.183594 85.425781 Z M 96.183594 71.464844 L 54.125 71.464844 C 53.660156 71.464844 53.210938 71.375 52.785156 71.199219 C 52.355469 71.019531 51.976562 70.769531 51.644531 70.441406 C 51.316406 70.113281 51.0625 69.738281 50.886719 69.308594 C 50.707031 68.882812 50.621094 68.4375 50.621094 67.972656 C 50.621094 67.511719 50.707031 67.066406 50.886719 66.636719 C 51.0625 66.210938 51.316406 65.832031 51.644531 65.503906 C 51.976562 65.179688 52.355469 64.925781 52.785156 64.75 C 53.210938 64.570312 53.660156 64.484375 54.125 64.484375 L 96.183594 64.484375 C 96.648438 64.484375 97.09375 64.570312 97.523438 64.75 C 97.953125 64.925781 98.332031 65.179688 98.660156 65.503906 C 98.988281 65.832031 99.242188 66.210938 99.421875 66.636719 C 99.597656 67.066406 99.6875 67.511719 99.6875 67.972656 C 99.6875 68.4375 99.597656 68.882812 99.421875 69.308594 C 99.242188 69.738281 98.988281 70.113281 98.660156 70.441406 C 98.332031 70.769531 97.953125 71.019531 97.523438 71.199219 C 97.09375 71.375 96.648438 71.464844 96.183594 71.464844 Z M 96.183594 71.464844 " fill-opacity="1" fill-rule="nonzero"/></g></svg>