<?xml version="1.0" encoding="UTF-8"?><svg xmlns="http://www.w3.org/2000/svg" xmlns:xlink="http://www.w3.org/1999/xlink" contentScriptType="text/ecmascript" width="150" zoomAndPan="magnify" contentStyleType="text/css" viewBox="0 0 150 149.999998" height="149.999998" preserveAspectRatio="xMidYMid meet" version="1.0"><defs><clipPath id="clip-0"><path d="M 96 96 L 125.179688 96 L 125.179688 125.179688 L 96 125.179688 Z M 96 96 " clip-rule="nonzero"/></clipPath><clipPath id="clip-1"><path d="M 24.679688 24.679688 L 104 24.679688 L 104 108 L 24.679688 108 Z M 24.679688 24.679688 " clip-rule="nonzero"/></clipPath></defs><path fill="rgb(100%, 100%, 100%)" d="M 119.796875 85.695312 C 120.785156 85.695312 121.589844 84.890625 121.589844 83.902344 L 121.589844 82.109375 C 121.589844 76.171875 116.761719 71.339844 110.820312 71.339844 C 104.882812 71.339844 100.054688 76.171875 100.054688 82.109375 L 100.054688 92.875 L 103.644531 92.875 L 103.644531 82.109375 C 103.644531 78.148438 106.863281 74.929688 110.820312 74.929688 C 114.78125 74.929688 118 78.148438 118 82.109375 L 118 83.902344 C 118 84.890625 118.808594 85.695312 119.796875 85.695312 " fill-opacity="1" fill-rule="nonzero"/><path fill="rgb(100%, 100%, 100%)" d="M 43.523438 73.132812 C 45.007812 73.132812 46.214844 71.929688 46.214844 70.441406 L 46.214844 61.46875 C 46.214844 59.984375 45.007812 58.777344 43.523438 58.777344 C 42.035156 58.777344 40.832031 59.984375 40.832031 61.46875 L 40.832031 70.441406 C 40.832031 71.929688 42.035156 73.132812 43.523438 73.132812 " fill-opacity="1" fill-rule="nonzero"/><path fill="rgb(100%, 100%, 100%)" d="M 43.523438 98.257812 C 45.007812 98.257812 46.214844 97.054688 46.214844 95.566406 L 46.214844 86.59375 C 46.214844 85.109375 45.007812 83.902344 43.523438 83.902344 C 42.035156 83.902344 40.832031 85.109375 40.832031 86.59375 L 40.832031 95.566406 C 40.832031 97.054688 42.035156 98.257812 43.523438 98.257812 " fill-opacity="1" fill-rule="nonzero"/><path fill="rgb(100%, 100%, 100%)" d="M 43.523438 48.007812 C 45.007812 48.007812 46.214844 46.804688 46.214844 45.316406 L 46.214844 36.34375 C 46.214844 34.859375 45.007812 33.652344 43.523438 33.652344 C 42.035156 33.652344 40.832031 34.859375 40.832031 36.34375 L 40.832031 45.316406 C 40.832031 46.804688 42.035156 48.007812 43.523438 48.007812 " fill-opacity="1" fill-rule="nonzero"/><path fill="rgb(100%, 100%, 100%)" d="M 59.675781 98.257812 C 61.160156 98.257812 62.367188 97.054688 62.367188 95.566406 L 62.367188 86.59375 C 62.367188 85.109375 61.160156 83.902344 59.675781 83.902344 C 58.1875 83.902344 56.984375 85.109375 56.984375 86.59375 L 56.984375 95.566406 C 56.984375 97.054688 58.1875 98.257812 59.675781 98.257812 " fill-opacity="1" fill-rule="nonzero"/><path fill="rgb(100%, 100%, 100%)" d="M 110.820312 103.644531 C 108.84375 103.644531 107.234375 105.257812 107.234375 107.234375 C 107.234375 109.210938 108.84375 110.820312 110.820312 110.820312 C 112.800781 110.820312 114.410156 109.210938 114.410156 107.234375 C 114.410156 105.257812 112.800781 103.644531 110.820312 103.644531 " fill-opacity="1" fill-rule="nonzero"/><g clip-path="url(#clip-0)"><path fill="rgb(100%, 100%, 100%)" d="M 112.617188 114.160156 L 112.617188 119.796875 C 112.617188 120.785156 111.8125 121.589844 110.820312 121.589844 C 109.832031 121.589844 109.027344 120.785156 109.027344 119.796875 L 109.027344 114.160156 C 105.941406 113.351562 103.644531 110.570312 103.644531 107.234375 C 103.644531 103.273438 106.863281 100.054688 110.820312 100.054688 C 114.78125 100.054688 118 103.273438 118 107.234375 C 118 110.570312 115.703125 113.351562 112.617188 114.160156 Z M 123.382812 96.464844 L 98.257812 96.464844 C 97.269531 96.464844 96.464844 97.269531 96.464844 98.257812 L 96.464844 123.382812 C 96.464844 124.375 97.269531 125.179688 98.257812 125.179688 L 123.382812 125.179688 C 124.375 125.179688 125.179688 124.375 125.179688 123.382812 L 125.179688 98.257812 C 125.179688 97.269531 124.375 96.464844 123.382812 96.464844 " fill-opacity="1" fill-rule="nonzero"/></g><path fill="rgb(100%, 100%, 100%)" d="M 90.183594 58.777344 C 88.699219 58.777344 87.492188 59.984375 87.492188 61.46875 L 87.492188 70.441406 C 87.492188 71.929688 88.699219 73.132812 90.183594 73.132812 C 91.671875 73.132812 92.875 71.929688 92.875 70.441406 L 92.875 61.46875 C 92.875 59.984375 91.671875 58.777344 90.183594 58.777344 " fill-opacity="1" fill-rule="nonzero"/><g clip-path="url(#clip-1)"><path fill="rgb(100%, 100%, 100%)" d="M 31.859375 30.0625 L 31.859375 31.859375 C 31.859375 32.847656 31.050781 33.652344 30.0625 33.652344 C 29.074219 33.652344 28.269531 32.847656 28.269531 31.859375 L 28.269531 30.0625 C 28.269531 29.074219 29.074219 28.269531 30.0625 28.269531 C 31.050781 28.269531 31.859375 29.074219 31.859375 30.0625 Z M 37.242188 86.59375 C 37.242188 83.132812 40.058594 80.3125 43.523438 80.3125 C 46.984375 80.3125 49.804688 83.132812 49.804688 86.59375 L 49.804688 95.566406 C 49.804688 99.03125 46.984375 101.847656 43.523438 101.847656 C 40.058594 101.847656 37.242188 99.03125 37.242188 95.566406 Z M 37.242188 61.46875 C 37.242188 58.007812 40.058594 55.1875 43.523438 55.1875 C 46.984375 55.1875 49.804688 58.007812 49.804688 61.46875 L 49.804688 70.441406 C 49.804688 73.90625 46.984375 76.722656 43.523438 76.722656 C 40.058594 76.722656 37.242188 73.90625 37.242188 70.441406 Z M 37.242188 36.34375 C 37.242188 32.882812 40.058594 30.0625 43.523438 30.0625 C 46.984375 30.0625 49.804688 32.882812 49.804688 36.34375 L 49.804688 45.316406 C 49.804688 48.78125 46.984375 51.597656 43.523438 51.597656 C 40.058594 51.597656 37.242188 48.78125 37.242188 45.316406 Z M 53.394531 86.59375 C 53.394531 83.132812 56.210938 80.3125 59.675781 80.3125 C 63.136719 80.3125 65.957031 83.132812 65.957031 86.59375 L 65.957031 95.566406 C 65.957031 99.03125 63.136719 101.847656 59.675781 101.847656 C 56.210938 101.847656 53.394531 99.03125 53.394531 95.566406 Z M 53.394531 36.34375 C 53.394531 32.882812 56.210938 30.0625 59.675781 30.0625 C 63.136719 30.0625 65.957031 32.882812 65.957031 36.34375 L 65.957031 45.316406 C 65.957031 48.78125 63.136719 51.597656 59.675781 51.597656 C 56.210938 51.597656 53.394531 48.78125 53.394531 45.316406 Z M 70.0625 84.421875 L 73.652344 80.832031 C 74.179688 80.335938 74.949219 80.167969 75.609375 80.460938 C 76.296875 80.726562 76.722656 81.386719 76.722656 82.109375 L 76.722656 98.257812 L 78.519531 98.257812 C 79.507812 98.257812 80.3125 99.066406 80.3125 100.054688 C 80.3125 101.042969 79.507812 101.847656 78.519531 101.847656 L 71.339844 101.847656 C 70.351562 101.847656 69.546875 101.042969 69.546875 100.054688 C 69.546875 99.066406 70.351562 98.257812 71.339844 98.257812 L 73.132812 98.257812 L 73.132812 86.433594 L 72.617188 86.972656 C 71.914062 87.667969 70.765625 87.667969 70.0625 86.972656 C 69.371094 86.273438 69.371094 85.121094 70.0625 84.421875 Z M 70.0625 59.296875 L 73.652344 55.707031 C 74.179688 55.210938 74.949219 55.042969 75.609375 55.335938 C 76.296875 55.601562 76.722656 56.261719 76.722656 56.984375 L 76.722656 73.132812 L 78.519531 73.132812 C 79.507812 73.132812 80.3125 73.941406 80.3125 74.929688 C 80.3125 75.917969 79.507812 76.722656 78.519531 76.722656 L 71.339844 76.722656 C 70.351562 76.722656 69.546875 75.917969 69.546875 74.929688 C 69.546875 73.941406 70.351562 73.132812 71.339844 73.132812 L 73.132812 73.132812 L 73.132812 61.308594 L 72.617188 61.847656 C 71.914062 62.542969 70.765625 62.542969 70.0625 61.847656 C 69.371094 61.148438 69.371094 59.996094 70.0625 59.296875 Z M 70.0625 34.171875 L 73.652344 30.582031 C 74.179688 30.085938 74.949219 29.917969 75.609375 30.210938 C 76.296875 30.476562 76.722656 31.136719 76.722656 31.859375 L 76.722656 48.007812 L 78.519531 48.007812 C 79.507812 48.007812 80.3125 48.816406 80.3125 49.804688 C 80.3125 50.792969 79.507812 51.597656 78.519531 51.597656 L 71.339844 51.597656 C 70.351562 51.597656 69.546875 50.792969 69.546875 49.804688 C 69.546875 48.816406 70.351562 48.007812 71.339844 48.007812 L 73.132812 48.007812 L 73.132812 36.183594 L 72.617188 36.722656 C 71.914062 37.417969 70.765625 37.417969 70.0625 36.722656 C 69.371094 36.023438 69.371094 34.871094 70.0625 34.171875 Z M 84.421875 34.171875 L 88.011719 30.582031 C 88.535156 30.085938 89.308594 29.917969 89.964844 30.210938 C 90.652344 30.476562 91.082031 31.136719 91.082031 31.859375 L 91.082031 48.007812 L 92.875 48.007812 C 93.863281 48.007812 94.671875 48.816406 94.671875 49.804688 C 94.671875 50.792969 93.863281 51.597656 92.875 51.597656 L 85.695312 51.597656 C 84.707031 51.597656 83.902344 50.792969 83.902344 49.804688 C 83.902344 48.816406 84.707031 48.007812 85.695312 48.007812 L 87.492188 48.007812 L 87.492188 36.183594 L 86.972656 36.722656 C 86.273438 37.417969 85.121094 37.417969 84.421875 36.722656 C 83.726562 36.023438 83.726562 34.871094 84.421875 34.171875 Z M 96.464844 70.441406 C 96.464844 73.90625 93.648438 76.722656 90.183594 76.722656 C 86.71875 76.722656 83.902344 73.90625 83.902344 70.441406 L 83.902344 61.46875 C 83.902344 58.007812 86.71875 55.1875 90.183594 55.1875 C 93.648438 55.1875 96.464844 58.007812 96.464844 61.46875 Z M 58.257812 61.847656 C 57.558594 62.542969 56.40625 62.542969 55.707031 61.847656 C 55.011719 61.148438 55.011719 59.996094 55.707031 59.296875 L 59.296875 55.707031 C 59.820312 55.210938 60.59375 55.042969 61.253906 55.335938 C 61.9375 55.601562 62.367188 56.261719 62.367188 56.984375 L 62.367188 73.132812 L 64.160156 73.132812 C 65.148438 73.132812 65.957031 73.941406 65.957031 74.929688 C 65.957031 75.917969 65.148438 76.722656 64.160156 76.722656 L 56.984375 76.722656 C 55.996094 76.722656 55.1875 75.917969 55.1875 74.929688 C 55.1875 73.941406 55.996094 73.132812 56.984375 73.132812 L 58.777344 73.132812 L 58.777344 61.308594 Z M 31.859375 101.847656 C 31.859375 102.835938 31.050781 103.644531 30.0625 103.644531 C 29.074219 103.644531 28.269531 102.835938 28.269531 101.847656 L 28.269531 39.035156 C 28.269531 38.046875 29.074219 37.242188 30.0625 37.242188 C 31.050781 37.242188 31.859375 38.046875 31.859375 39.035156 Z M 24.679688 30.0625 L 24.679688 101.847656 C 24.679688 104.8125 27.105469 107.234375 30.0625 107.234375 L 92.875 107.234375 L 92.875 98.257812 C 92.875 95.925781 94.382812 93.933594 96.464844 93.199219 L 96.464844 82.109375 C 96.464844 76.816406 99.351562 72.167969 103.644531 69.691406 L 103.644531 30.0625 C 103.644531 27.097656 101.226562 24.679688 98.257812 24.679688 L 30.0625 24.679688 C 27.105469 24.679688 24.679688 27.097656 24.679688 30.0625 " fill-opacity="1" fill-rule="nonzero"/></g><path fill="rgb(100%, 100%, 100%)" d="M 59.675781 48.007812 C 61.160156 48.007812 62.367188 46.804688 62.367188 45.316406 L 62.367188 36.34375 C 62.367188 34.859375 61.160156 33.652344 59.675781 33.652344 C 58.1875 33.652344 56.984375 34.859375 56.984375 36.34375 L 56.984375 45.316406 C 56.984375 46.804688 58.1875 48.007812 59.675781 48.007812 " fill-opacity="1" fill-rule="nonzero"/></svg>