<?xml version="1.0" encoding="UTF-8"?><svg xmlns="http://www.w3.org/2000/svg" xmlns:xlink="http://www.w3.org/1999/xlink" contentScriptType="text/ecmascript" width="150" zoomAndPan="magnify" contentStyleType="text/css" viewBox="0 0 150 149.999998" height="149.999998" preserveAspectRatio="xMidYMid meet" version="1.0"><defs><clipPath id="clip-0"><path d="M 24.570312 37.179688 L 125.070312 37.179688 L 125.070312 112.929688 L 24.570312 112.929688 Z M 24.570312 37.179688 " clip-rule="nonzero"/></clipPath></defs><g clip-path="url(#clip-0)"><path fill="rgb(100%, 100%, 100%)" d="M 123.496094 37.179688 L 26.144531 37.179688 C 25.203125 37.179688 24.574219 37.808594 24.574219 38.757812 L 24.574219 111.351562 C 24.574219 112.296875 25.203125 112.929688 26.144531 112.929688 L 123.496094 112.929688 C 124.4375 112.929688 125.066406 112.296875 125.066406 111.351562 L 125.066406 38.757812 C 125.066406 37.808594 124.4375 37.179688 123.496094 37.179688 Z M 121.925781 109.773438 L 27.714844 109.773438 L 27.714844 40.335938 L 121.925781 40.335938 Z M 121.925781 109.773438 " fill-opacity="1" fill-rule="nonzero"/></g><path fill="rgb(100%, 100%, 100%)" d="M 37.136719 101.882812 L 112.503906 101.882812 C 113.449219 101.882812 114.074219 101.25 114.074219 100.304688 L 114.074219 49.804688 C 114.074219 48.855469 113.449219 48.226562 112.503906 48.226562 L 37.136719 48.226562 C 36.195312 48.226562 35.566406 48.855469 35.566406 49.804688 L 35.566406 100.304688 C 35.566406 101.25 36.195312 101.882812 37.136719 101.882812 Z M 38.707031 98.726562 L 38.707031 82.785156 C 38.707031 82.785156 38.863281 82.785156 38.863281 82.628906 L 48.914062 72.527344 L 59.589844 83.257812 C 59.902344 83.574219 60.375 83.734375 60.6875 83.734375 C 61.003906 83.734375 61.472656 83.574219 61.789062 83.257812 C 62.417969 82.628906 62.417969 81.679688 61.789062 81.050781 L 57.234375 76.632812 L 67.125 66.6875 L 89.421875 89.097656 C 89.738281 89.414062 90.207031 89.570312 90.523438 89.570312 C 90.835938 89.570312 91.308594 89.414062 91.621094 89.097656 C 92.25 88.46875 92.25 87.519531 91.621094 86.890625 L 87.382812 82.46875 L 97.429688 72.371094 L 110.933594 85.941406 L 110.933594 98.726562 Z M 110.933594 51.382812 L 110.933594 81.523438 L 98.53125 69.054688 C 97.902344 68.425781 96.960938 68.425781 96.332031 69.054688 L 85.183594 80.261719 L 68.226562 63.21875 C 67.597656 62.585938 66.65625 62.585938 66.027344 63.21875 L 55.035156 74.265625 L 50.011719 69.214844 C 49.382812 68.582031 48.441406 68.582031 47.8125 69.214844 L 38.707031 78.367188 L 38.707031 51.382812 Z M 110.933594 51.382812 " fill-opacity="1" fill-rule="nonzero"/><path fill="rgb(100%, 100%, 100%)" d="M 84.242188 70.476562 C 87.695312 70.476562 90.523438 67.636719 90.523438 64.164062 C 90.523438 60.691406 87.695312 57.851562 84.242188 57.851562 C 80.789062 57.851562 77.960938 60.691406 77.960938 64.164062 C 77.960938 67.636719 80.789062 70.476562 84.242188 70.476562 Z M 84.242188 60.851562 C 85.96875 60.851562 87.382812 62.269531 87.382812 64.007812 C 87.382812 65.742188 85.96875 67.164062 84.242188 67.164062 C 82.515625 67.164062 81.101562 65.742188 81.101562 64.007812 C 81.101562 62.269531 82.515625 60.851562 84.242188 60.851562 Z M 84.242188 60.851562 " fill-opacity="1" fill-rule="nonzero"/></svg>