<?xml version="1.0" encoding="UTF-8"?><svg xmlns="http://www.w3.org/2000/svg" xmlns:xlink="http://www.w3.org/1999/xlink" contentScriptType="text/ecmascript" width="300" zoomAndPan="magnify" contentStyleType="text/css" viewBox="0 0 300 149.999998" height="149.999998" preserveAspectRatio="xMidYMid meet" version="1.0"><defs><clipPath id="clip-0"><path d="M 7 42 L 299 42 L 299 108.484375 L 7 108.484375 Z M 7 42 " clip-rule="nonzero"/></clipPath><clipPath id="clip-1"><path d="M 161 41.734375 L 164 41.734375 L 164 43 L 161 43 Z M 161 41.734375 " clip-rule="nonzero"/></clipPath><clipPath id="clip-2"><path d="M 145 108 L 147 108 L 147 108.484375 L 145 108.484375 Z M 145 108 " clip-rule="nonzero"/></clipPath><clipPath id="clip-3"><path d="M 71 107 L 73 107 L 73 108.484375 L 71 108.484375 Z M 71 107 " clip-rule="nonzero"/></clipPath></defs><g clip-path="url(#clip-0)"><path fill="rgb(100%, 100%, 100%)" d="M 290.964844 86.671875 C 290.699219 86.691406 290.414062 86.695312 290.15625 86.664062 C 290.054688 86.652344 289.988281 86.535156 289.9375 86.457031 C 289.925781 86.441406 290.046875 86.375 290.117188 86.371094 C 290.382812 86.347656 290.652344 86.339844 290.8125 86.332031 C 291.1875 86.355469 291.492188 86.371094 291.414062 86.566406 C 291.394531 86.617188 291.128906 86.664062 290.964844 86.671875 Z M 288.917969 83.503906 C 288.695312 83.527344 288.53125 83.476562 288.519531 83.367188 C 288.515625 83.253906 288.667969 83.191406 288.890625 83.207031 C 288.972656 83.214844 289.070312 83.25 289.109375 83.289062 C 289.230469 83.394531 289.15625 83.472656 288.917969 83.503906 Z M 287.394531 75.210938 C 287.390625 75.140625 287.550781 75.023438 287.683594 75 C 288.199219 74.90625 288.746094 75.132812 288.800781 75.464844 C 288.828125 75.613281 288.707031 75.738281 288.390625 75.785156 C 287.898438 75.796875 287.410156 75.535156 287.394531 75.210938 Z M 286.957031 78.257812 C 286.554688 78.152344 286.023438 78.085938 286.160156 77.769531 C 286.203125 77.664062 286.527344 77.53125 286.738281 77.523438 C 287.214844 77.496094 287.683594 77.949219 287.429688 78.164062 C 287.355469 78.222656 287.121094 78.226562 286.957031 78.257812 Z M 283.660156 78.28125 C 282.984375 78.164062 282.605469 77.742188 282.945312 77.460938 C 283.101562 77.324219 283.390625 77.269531 283.6875 77.316406 C 284.230469 77.398438 284.433594 77.671875 284.28125 78.0625 C 284.210938 78.238281 283.976562 78.292969 283.660156 78.28125 Z M 284.101562 82.453125 C 283.917969 82.710938 283.507812 82.808594 282.980469 82.71875 C 282.671875 82.609375 282.269531 82.5 282.535156 82.269531 C 282.78125 82.0625 283.203125 81.898438 283.703125 81.972656 C 284.117188 82.035156 284.238281 82.261719 284.101562 82.453125 Z M 282.417969 89.914062 C 282.171875 89.917969 281.984375 89.820312 281.957031 89.675781 C 281.925781 89.519531 282.113281 89.40625 282.421875 89.421875 C 282.5625 89.433594 282.742188 89.523438 282.796875 89.597656 C 282.898438 89.742188 282.796875 89.863281 282.417969 89.914062 Z M 281.332031 71.328125 C 281.183594 71.414062 280.78125 71.460938 280.582031 71.417969 C 280.375 71.375 280.148438 71.207031 280.121094 71.078125 C 279.976562 70.398438 279.890625 69.710938 279.773438 68.917969 C 279.824219 68.828125 279.847656 68.613281 280.039062 68.460938 C 280.667969 67.964844 280.714844 67.453125 280.398438 66.902344 C 280.289062 66.707031 280.46875 66.492188 280.914062 66.457031 C 281.34375 66.421875 281.765625 66.59375 281.710938 66.78125 C 281.441406 67.648438 282.050781 68.449219 282.535156 69.222656 C 283.113281 70.140625 282.34375 70.730469 281.332031 71.328125 Z M 280.40625 74.902344 C 280.378906 74.550781 280.351562 74.199219 280.3125 73.75 C 281.136719 74.453125 281.140625 74.472656 280.40625 74.902344 Z M 280.417969 75.863281 C 280 76.050781 279.949219 75.503906 280.394531 74.96875 C 280.582031 75.269531 281.054688 75.574219 280.417969 75.863281 Z M 283.480469 75.578125 C 283.703125 75.535156 283.867188 75.597656 283.804688 75.703125 C 283.765625 75.765625 283.542969 75.792969 283.40625 75.835938 C 283.171875 75.855469 282.996094 75.800781 283.0625 75.722656 C 283.125 75.652344 283.324219 75.605469 283.480469 75.578125 Z M 276.339844 75.5625 C 276.308594 75.738281 276.398438 76.058594 275.941406 76.011719 C 275.398438 75.953125 275.429688 75.632812 275.589844 75.386719 C 275.941406 74.863281 276.035156 74.324219 275.964844 73.769531 C 275.957031 73.707031 276.171875 73.636719 276.417969 73.488281 C 276.753906 74.230469 276.460938 74.898438 276.339844 75.5625 Z M 275.507812 92 C 275.480469 92.035156 275.355469 92.066406 275.273438 92.074219 C 275.1875 92.078125 275.023438 92.054688 275.015625 92.039062 C 274.933594 91.609375 274.859375 91.179688 274.800781 90.746094 C 274.800781 90.726562 274.949219 90.679688 275.03125 90.671875 C 275.117188 90.667969 275.242188 90.683594 275.292969 90.714844 C 275.773438 91.015625 275.359375 91.398438 275.644531 91.671875 C 275.589844 91.8125 275.570312 91.910156 275.507812 92 Z M 273.460938 70.238281 C 273.214844 70.234375 272.882812 70.167969 272.742188 70.074219 C 272.082031 69.625 272.523438 68.859375 273.535156 68.761719 C 274.144531 68.699219 274.800781 68.761719 275.4375 68.777344 C 275.441406 69.113281 275.429688 69.449219 275.082031 69.75 C 274.710938 70.078125 274.164062 70.242188 273.460938 70.238281 Z M 272.757812 75.890625 C 272.640625 75.878906 272.570312 75.742188 272.480469 75.664062 C 272.507812 75.511719 272.589844 75.359375 272.957031 75.40625 C 273.082031 75.421875 273.222656 75.550781 273.234375 75.632812 C 273.269531 75.796875 273.101562 75.929688 272.757812 75.890625 Z M 270.929688 94.492188 C 270.054688 94.699219 269.628906 94.605469 269.445312 94.066406 C 269.351562 93.796875 268.75 93.507812 269.292969 93.242188 C 269.917969 92.941406 270.507812 93.242188 271.089844 93.371094 C 271.511719 93.460938 271.933594 93.550781 272.351562 93.640625 C 272.085938 94.019531 271.667969 94.316406 270.929688 94.492188 Z M 268.898438 72.601562 C 268.925781 72.554688 268.980469 72.511719 269.035156 72.453125 C 269.433594 72.183594 269.316406 71.929688 268.933594 71.65625 C 268.234375 71.15625 268.394531 70.621094 268.859375 70.09375 C 269.066406 69.863281 269.339844 69.621094 269.921875 69.722656 C 270.402344 69.808594 271.097656 69.808594 271.011719 70.257812 C 270.976562 70.449219 270.996094 70.660156 271.121094 70.84375 C 271.410156 71.269531 271.179688 71.609375 270.675781 71.949219 C 270.265625 72.222656 269.960938 72.539062 269.578125 72.824219 C 269.480469 72.898438 269.242188 72.976562 269.113281 72.960938 C 268.730469 72.914062 268.816406 72.746094 268.898438 72.601562 Z M 267.300781 69.308594 C 267.023438 69.429688 266.753906 69.625 266.339844 69.472656 C 266.121094 69.386719 265.921875 69.261719 265.828125 69.128906 C 265.425781 68.558594 266.484375 68.007812 265.953125 67.425781 C 266.191406 67.375 266.441406 67.277344 266.671875 67.28125 C 267.789062 67.308594 268.097656 67.820312 268.628906 68.203125 C 268.40625 68.644531 267.964844 69.015625 267.300781 69.308594 Z M 267.679688 92.101562 C 267.605469 92.039062 267.527344 91.972656 267.449219 91.910156 C 267.519531 91.886719 267.605469 91.839844 267.652344 91.847656 C 267.789062 91.875 267.902344 91.925781 268.023438 91.96875 C 267.910156 92.011719 267.796875 92.054688 267.679688 92.101562 Z M 266.847656 73.292969 C 266.71875 73.316406 266.492188 73.261719 266.378906 73.203125 C 266.054688 73.03125 265.78125 72.828125 265.875 72.566406 C 265.902344 72.484375 266.039062 72.414062 266.121094 72.332031 C 266.285156 72.363281 266.535156 72.371094 266.597656 72.429688 C 266.808594 72.636719 266.980469 72.859375 267.105469 73.082031 C 267.136719 73.136719 266.96875 73.273438 266.847656 73.292969 Z M 266.171875 62.292969 C 266.328125 62.257812 266.285156 62.015625 266.40625 61.890625 C 266.722656 61.558594 267.273438 61.546875 267.6875 61.839844 C 268.421875 62.363281 268.753906 62.878906 267.898438 63.472656 C 267.449219 63.785156 267.160156 64.160156 266.761719 64.496094 C 266.695312 64.554688 266.433594 64.546875 266.308594 64.5625 C 266.167969 64.484375 265.980469 64.429688 265.929688 64.351562 C 265.679688 63.976562 266.164062 63.6875 266.398438 63.371094 C 266.511719 63.21875 266.492188 63.027344 266.21875 62.988281 C 264.765625 62.765625 264.925781 62.558594 266.171875 62.292969 Z M 269.382812 67.089844 C 269.558594 67.488281 269.738281 67.890625 269.902344 68.292969 C 269.957031 68.425781 269.976562 68.605469 269.648438 68.609375 C 269.449219 68.613281 269.242188 68.464844 269.039062 68.382812 C 268.910156 68.328125 268.789062 68.273438 268.660156 68.214844 C 268.757812 67.816406 268.855469 67.414062 269.382812 67.089844 Z M 269.699219 66.328125 C 270.085938 66.292969 270.449219 66.414062 270.542969 66.613281 C 270.648438 66.847656 270.277344 66.9375 269.910156 66.988281 C 269.742188 67.011719 269.570312 67.027344 269.398438 67.046875 C 269.367188 66.957031 269.339844 66.871094 269.304688 66.78125 C 269.230469 66.582031 269.238281 66.371094 269.699219 66.328125 Z M 270.597656 64.3125 C 271.105469 64.316406 271.140625 64.539062 271.070312 64.746094 C 271.015625 64.90625 270.792969 64.992188 270.46875 65 C 270.050781 64.925781 269.84375 64.753906 269.972656 64.546875 C 270.039062 64.441406 270.382812 64.3125 270.597656 64.3125 Z M 263.683594 93.800781 C 263.09375 93.722656 262.324219 93.8125 262.007812 93.40625 C 261.804688 93.136719 263.132812 92.820312 264.066406 92.941406 C 264.570312 93.007812 264.851562 93.226562 264.785156 93.5 C 264.703125 93.847656 264.191406 93.824219 263.683594 93.800781 Z M 261.582031 70.273438 C 261.265625 70.066406 261.21875 69.824219 261.34375 69.570312 C 261.703125 68.867188 262.0625 68.160156 262.417969 67.453125 C 263.625 68.078125 263.210938 68.933594 263.558594 69.683594 C 263.640625 69.863281 262.410156 70.449219 262.007812 70.441406 C 261.859375 70.4375 261.691406 70.34375 261.582031 70.273438 Z M 261.132812 62.488281 C 260.765625 62.824219 260.40625 63.164062 260.007812 63.492188 C 259.929688 63.558594 259.71875 63.578125 259.566406 63.621094 C 259.488281 63.601562 259.351562 63.589844 259.332031 63.558594 C 259.039062 63.121094 258.402344 62.703125 259.203125 62.21875 C 259.550781 62.003906 259.710938 61.707031 260.019531 61.472656 C 260.1875 61.34375 260.523438 61.339844 260.753906 61.453125 C 261.410156 61.765625 261.53125 62.121094 261.132812 62.488281 Z M 260.492188 67.351562 C 260.171875 67.640625 259.855469 67.964844 259.011719 67.957031 C 258.921875 67.894531 258.695312 67.804688 258.722656 67.753906 C 258.972656 67.34375 259.222656 66.929688 259.5625 66.542969 C 259.6875 66.394531 260.074219 66.457031 260.289062 66.554688 C 260.785156 66.785156 260.796875 67.078125 260.492188 67.351562 Z M 258.875 73.480469 C 258.796875 73.503906 258.699219 73.515625 258.609375 73.53125 C 258.480469 73.46875 258.222656 73.394531 258.238281 73.34375 C 258.382812 72.921875 258.621094 72.511719 259.203125 72.191406 C 259.277344 72.148438 259.667969 72.179688 259.707031 72.222656 C 260.015625 72.585938 259.542969 73.265625 258.875 73.480469 Z M 262.449219 66.167969 C 262.496094 66.105469 262.753906 66.039062 262.902344 66.042969 C 263.242188 66.0625 263.324219 66.210938 263.292969 66.363281 C 263.214844 66.757812 262.847656 67.082031 262.421875 67.398438 C 261.792969 66.988281 262.160156 66.574219 262.449219 66.167969 Z M 263.015625 63.945312 C 263.132812 63.902344 263.398438 63.90625 263.527344 63.953125 C 264.148438 64.167969 264.589844 64.652344 264.40625 64.925781 C 264.355469 65 264.160156 65.066406 264.003906 65.101562 C 263.847656 65.136719 263.652344 65.132812 263.464844 65.148438 C 263.007812 65.089844 262.53125 65.003906 262.5 64.722656 C 262.472656 64.4375 262.496094 64.128906 263.015625 63.945312 Z M 256.871094 93.59375 C 256.148438 93.625 255.785156 93.480469 255.753906 93.136719 C 255.746094 92.996094 255.785156 92.847656 255.804688 92.707031 C 255.789062 92.707031 255.777344 92.707031 255.765625 92.707031 C 255.785156 92.5625 255.726562 92.398438 255.839844 92.285156 C 255.945312 92.167969 256.214844 92.046875 256.433594 92.03125 C 256.65625 92.015625 257.027344 92.101562 257.125 92.199219 C 257.371094 92.449219 257.542969 92.730469 257.675781 93.007812 C 257.851562 93.375 257.566406 93.5625 256.871094 93.59375 Z M 254.9375 69.945312 C 254.628906 69.761719 254.789062 69.601562 254.980469 69.425781 C 255.300781 69.136719 255.578125 68.835938 255.984375 68.429688 C 256.933594 68.945312 256.671875 69.371094 256.101562 69.800781 C 255.796875 70.03125 255.203125 70.101562 254.9375 69.945312 Z M 253.96875 62.917969 C 253.558594 63.246094 252.757812 63.421875 252.28125 63.273438 C 251.765625 63.113281 251.40625 62.664062 251.554688 62.367188 C 251.578125 62.316406 251.601562 62.257812 251.667969 62.230469 C 252.421875 61.90625 252.386719 61.457031 252.4375 61.007812 C 252.464844 60.761719 252.613281 60.492188 253.226562 60.480469 C 253.769531 60.46875 254.042969 60.691406 254.289062 60.90625 C 254.601562 61.175781 254.578125 61.480469 254.566406 61.800781 C 254.464844 62.171875 254.398438 62.570312 253.96875 62.917969 Z M 252.972656 66.855469 C 252.996094 67.078125 253.054688 67.226562 253.003906 67.363281 C 252.980469 67.421875 252.707031 67.492188 252.5625 67.484375 C 252.402344 67.472656 252.183594 67.394531 252.132812 67.320312 C 251.929688 67.03125 252.003906 66.738281 252.257812 66.464844 C 252.386719 66.328125 252.660156 66.25 252.953125 66.300781 C 253.070312 66.324219 253.203125 66.445312 253.1875 66.511719 C 253.148438 66.65625 253.015625 66.789062 252.972656 66.855469 Z M 252.660156 72.007812 C 252.375 72.023438 252.132812 71.929688 252.09375 71.785156 C 252.046875 71.617188 252.28125 71.527344 252.585938 71.5625 C 252.859375 71.585938 253.03125 71.691406 253.019531 71.839844 C 252.894531 71.902344 252.789062 72 252.660156 72.007812 Z M 256.691406 63.441406 C 256.796875 63.484375 257.082031 63.546875 257.214844 63.660156 C 257.75 64.121094 257.460938 64.917969 256.640625 65.265625 C 256.578125 65.292969 256.214844 65.214844 256.191406 65.164062 C 256.007812 64.691406 255.851562 64.207031 255.714844 63.726562 C 255.671875 63.570312 256.210938 63.378906 256.691406 63.441406 Z M 256.863281 60.679688 C 257.15625 60.75 257.273438 60.875 257.164062 61.023438 C 257.058594 61.167969 256.8125 61.257812 256.53125 61.15625 C 256.285156 61.070312 256.234375 60.90625 256.40625 60.777344 C 256.480469 60.714844 256.707031 60.710938 256.863281 60.679688 Z M 249.996094 92.570312 C 249.714844 92.414062 249.652344 92.242188 249.957031 92.085938 C 250.023438 92.050781 250.371094 92.085938 250.390625 92.121094 C 250.460938 92.242188 250.476562 92.382812 250.445312 92.511719 C 250.433594 92.539062 250.152344 92.550781 249.996094 92.570312 Z M 246.226562 58.65625 C 246.027344 58.792969 245.585938 58.882812 245.238281 58.90625 C 243.882812 58.992188 242.488281 58.984375 241.554688 58.382812 C 240.824219 57.914062 239.964844 57.863281 239.019531 57.964844 C 237.871094 58.085938 236.742188 58.03125 235.613281 57.972656 C 234.972656 57.945312 234.558594 57.683594 234.613281 57.359375 C 234.664062 57.066406 234.761719 56.761719 234.933594 56.484375 C 235.195312 56.046875 236.046875 55.980469 236.761719 56.289062 C 237.398438 56.5625 237.664062 56.910156 237.691406 57.480469 C 238.597656 57.328125 239.246094 57.25 239.847656 57.113281 C 241.050781 56.84375 242.113281 56.808594 243.261719 57.265625 C 244.148438 57.613281 244.785156 57.480469 245.433594 57.019531 C 245.703125 56.828125 245.683594 56.628906 245.289062 56.515625 C 244.535156 56.3125 244.660156 56.078125 245.132812 55.820312 C 245.398438 55.679688 245.683594 55.542969 245.988281 55.425781 C 246.765625 55.132812 248.148438 55.425781 248.167969 55.910156 C 248.214844 56.953125 247.410156 57.847656 246.226562 58.65625 Z M 245.933594 61.8125 C 245.632812 61.800781 245.519531 61.640625 245.558594 61.492188 C 245.621094 61.226562 246.15625 61.027344 246.527344 61.136719 C 246.65625 61.171875 246.703125 61.285156 246.792969 61.371094 C 246.667969 61.601562 246.515625 61.84375 245.933594 61.8125 Z M 243.667969 63.339844 C 243.617188 63.382812 243.296875 63.390625 243.164062 63.355469 C 242.585938 63.183594 241.976562 63.015625 241.992188 62.542969 C 242.144531 62.464844 242.308594 62.339844 242.53125 62.273438 C 242.800781 62.195312 243.101562 62.246094 243.304688 62.367188 C 243.425781 62.441406 243.519531 62.535156 243.554688 62.628906 C 243.648438 62.867188 243.933594 63.101562 243.667969 63.339844 Z M 239.203125 56.042969 C 239.277344 55.953125 239.378906 55.871094 239.488281 55.792969 C 239.761719 55.589844 239.476562 55.105469 240.363281 55.230469 C 240.917969 55.308594 240.695312 55.636719 240.746094 55.914062 C 240.707031 56.015625 240.679688 56.160156 240.601562 56.296875 C 240.472656 56.527344 239.8125 56.671875 239.453125 56.546875 C 239.085938 56.425781 239.042969 56.242188 239.203125 56.042969 Z M 229.898438 57.882812 C 229.859375 58.105469 229.445312 58.207031 229.0625 58.207031 C 228.699219 58.214844 228.316406 58.167969 227.96875 58.105469 C 227.476562 58.011719 227.164062 58.078125 226.726562 58.246094 C 225.636719 58.683594 225.25 58.625 224.480469 58.058594 C 224.328125 57.945312 224.277344 57.792969 224.1875 57.660156 C 224.261719 57.644531 224.339844 57.632812 224.414062 57.621094 C 225.972656 57.371094 227.429688 57.0625 227.789062 56.082031 C 227.820312 55.996094 227.980469 55.917969 228.097656 55.839844 C 228.527344 55.5625 229.515625 55.644531 229.757812 55.96875 C 230.210938 56.597656 230.007812 57.242188 229.898438 57.882812 Z M 218.34375 58.011719 C 217.957031 57.980469 217.800781 57.703125 218.027344 57.542969 C 218.566406 57.164062 219.386719 57.019531 220.136719 56.808594 C 220.945312 56.585938 221.59375 56.300781 220.929688 55.75 C 220.753906 55.601562 220.863281 55.4375 221.148438 55.378906 C 221.382812 55.328125 221.714844 55.335938 221.953125 55.386719 C 222.507812 55.496094 222.976562 55.699219 222.914062 56.042969 C 222.789062 56.699219 223.472656 57.167969 224.125 57.652344 C 222.273438 58.105469 220.335938 58.199219 218.34375 58.011719 Z M 215.941406 56.761719 C 215.5625 57.109375 216.300781 57.566406 215.519531 57.871094 C 215.085938 58.039062 214.859375 58.058594 212.71875 58.046875 C 212.589844 58.042969 212.109375 58.035156 211.660156 57.972656 C 211.273438 57.917969 211.039062 57.746094 211.132812 57.519531 C 211.21875 57.304688 211.476562 57.140625 211.902344 57.171875 C 212.457031 57.214844 212.992188 57.332031 213.546875 57.378906 C 214.171875 57.433594 214.660156 57.1875 214.609375 56.855469 C 214.554688 56.511719 214.402344 56.167969 214.375 55.820312 C 214.363281 55.636719 214.453125 55.425781 214.625 55.265625 C 214.738281 55.160156 215.058594 55.09375 215.308594 55.058594 C 215.425781 55.042969 215.679688 55.128906 215.738281 55.199219 C 216.03125 55.558594 216.4375 55.914062 216.195312 56.335938 C 216.117188 56.476562 216.078125 56.636719 215.941406 56.761719 Z M 215.34375 60.503906 C 214.917969 60.507812 214.625 60.390625 214.585938 60.179688 C 214.550781 59.984375 214.707031 59.773438 215.125 59.742188 C 215.542969 59.714844 215.777344 59.886719 215.867188 60.085938 C 215.96875 60.308594 215.761719 60.449219 215.34375 60.503906 Z M 209.429688 55.640625 C 209.339844 55.707031 209.09375 55.769531 208.964844 55.75 C 208.722656 55.71875 208.40625 55.648438 208.3125 55.546875 C 208.167969 55.386719 208.179688 55.183594 208.125 55.003906 C 208.332031 54.808594 208.480469 54.636719 208.699219 54.488281 C 208.777344 54.441406 209.097656 54.421875 209.195312 54.460938 C 209.777344 54.710938 209.894531 55.304688 209.429688 55.640625 Z M 206.367188 57.214844 C 206.308594 57.519531 206.207031 57.8125 205.496094 57.882812 C 204.804688 57.953125 204.164062 57.894531 203.722656 57.578125 C 203.578125 57.472656 203.445312 57.28125 203.523438 57.175781 C 203.925781 56.628906 204.390625 56.09375 204.859375 55.5625 C 204.933594 55.480469 205.117188 55.40625 205.28125 55.375 C 205.53125 55.324219 205.851562 55.253906 206.070312 55.296875 C 206.382812 55.359375 206.289062 55.535156 206.421875 55.398438 C 205.957031 55.90625 205.75 56.15625 206.109375 56.371094 C 206.554688 56.636719 206.421875 56.921875 206.367188 57.214844 Z M 201.308594 57.9375 C 200.050781 57.765625 198.816406 57.574219 197.496094 57.550781 C 197.0625 57.542969 196.894531 57.292969 197 57.097656 C 197.433594 56.261719 197.921875 55.433594 198.390625 54.601562 C 198.691406 55.164062 199.488281 55.613281 199.105469 56.265625 C 198.835938 56.722656 199.597656 56.960938 200.453125 56.78125 C 201.492188 56.558594 201.734375 56.613281 201.925781 57.128906 C 201.976562 57.277344 202.015625 57.425781 201.996094 57.570312 C 201.972656 57.789062 201.714844 57.996094 201.308594 57.9375 Z M 192.269531 55.96875 C 192.203125 55.734375 192.132812 55.503906 192.066406 55.273438 C 192.027344 55.125 192.015625 54.945312 192.414062 55.007812 C 192.605469 55.042969 192.796875 55.222656 192.832031 55.351562 C 192.902344 55.605469 192.605469 55.796875 192.269531 55.96875 Z M 191.777344 57.152344 C 191.578125 57.207031 191.183594 57.195312 191.003906 57.128906 C 190.824219 57.058594 190.679688 56.863281 190.730469 56.75 C 190.921875 56.339844 191.398438 56.058594 192.25 56.011719 C 192.59375 56.449219 192.726562 56.871094 191.777344 57.152344 Z M 189.121094 57.1875 C 189.015625 57.429688 188.851562 57.664062 188.3125 57.710938 C 187.902344 57.75 187.300781 57.441406 187.175781 57.164062 C 187.054688 56.910156 187.183594 56.683594 187.433594 56.472656 C 187.707031 56.242188 188.136719 56.164062 188.621094 56.1875 C 189.027344 56.207031 189.269531 56.449219 189.234375 56.820312 C 189.210938 56.902344 189.183594 57.046875 189.121094 57.1875 Z M 182.386719 57.738281 C 182.023438 57.75 181.632812 57.742188 181.300781 57.675781 C 180.847656 57.589844 180.449219 57.425781 180.6875 57.125 C 180.890625 56.859375 181.355469 56.808594 181.851562 56.855469 C 182.472656 56.917969 182.84375 57.105469 182.894531 57.421875 C 182.894531 57.625 182.675781 57.730469 182.386719 57.738281 Z M 178.335938 55.375 C 178.207031 55.367188 178.007812 55.269531 178.003906 55.210938 C 178.003906 55.144531 178.15625 55.039062 178.292969 55.011719 C 178.625 54.941406 178.988281 54.925781 179.257812 55.097656 C 179.304688 55.125 179.28125 55.183594 179.292969 55.226562 C 179.050781 55.40625 178.683594 55.398438 178.335938 55.375 Z M 150.40625 48.285156 C 149.910156 48.1875 149.683594 47.910156 149.953125 47.710938 C 150.117188 47.59375 150.300781 47.480469 150.519531 47.390625 C 150.867188 47.25 151.171875 47.007812 151.710938 47.136719 C 152.125 47.234375 152.335938 47.785156 152.078125 48.074219 C 151.859375 48.320312 151.488281 48.445312 150.507812 48.304688 C 150.765625 48.339844 150.582031 48.320312 150.40625 48.285156 Z M 148.371094 49.851562 C 147.738281 49.84375 147.113281 49.816406 146.144531 49.78125 C 146.933594 49.328125 147.617188 49.3125 148.339844 49.460938 C 148.480469 49.492188 148.636719 49.589844 148.652344 49.664062 C 148.664062 49.722656 148.46875 49.851562 148.371094 49.851562 Z M 144.148438 45.847656 C 144.015625 45.835938 143.910156 45.734375 143.792969 45.671875 C 143.886719 45.503906 144.140625 45.4375 144.425781 45.460938 C 144.554688 45.472656 144.769531 45.582031 144.753906 45.632812 C 144.710938 45.800781 144.445312 45.875 144.148438 45.847656 Z M 140.726562 49.359375 C 140.03125 49.359375 139.421875 48.949219 139.292969 48.421875 C 139.222656 48.132812 139.835938 47.796875 140.542969 47.761719 C 140.945312 47.742188 141.308594 47.84375 141.402344 48.046875 C 141.535156 48.328125 141.550781 48.625 141.605469 48.851562 C 141.574219 49.210938 141.265625 49.359375 140.726562 49.359375 Z M 124.453125 45.289062 C 124.054688 45.300781 123.671875 45.207031 123.730469 44.964844 C 123.753906 44.859375 124.0625 44.730469 124.292969 44.6875 C 124.675781 44.621094 125.007812 44.699219 125.144531 44.925781 C 125.148438 45.167969 124.851562 45.277344 124.453125 45.289062 Z M 123.347656 49.507812 C 122.988281 49.46875 122.632812 49.386719 122.601562 49.167969 C 122.578125 49.015625 122.804688 48.898438 123.125 48.921875 C 123.585938 48.949219 123.96875 49.054688 123.992188 49.335938 C 123.863281 49.496094 123.617188 49.539062 123.347656 49.507812 Z M 120.53125 47.898438 C 121.210938 47.464844 122.070312 47.777344 122.722656 47.59375 C 122.792969 47.574219 123.082031 47.667969 123.105469 47.726562 C 123.167969 47.886719 122.96875 48.023438 122.683594 48.039062 C 121.976562 48.085938 121.261719 48.09375 120.53125 47.898438 Z M 117.796875 103.402344 C 117.175781 103.382812 116.5625 103.335938 115.945312 103.300781 C 116.441406 103.046875 117.054688 103.027344 117.695312 103.089844 C 117.847656 103.101562 117.972656 103.1875 118.113281 103.238281 C 118.007812 103.296875 117.894531 103.40625 117.796875 103.402344 Z M 115.027344 104.164062 C 114.261719 104.152344 113.929688 103.988281 113.964844 103.632812 C 113.996094 103.351562 114.238281 103.140625 114.804688 103.148438 C 115.15625 103.152344 115.507812 103.253906 115.855469 103.3125 C 115.886719 103.457031 115.945312 103.597656 115.945312 103.742188 C 115.945312 104.054688 115.582031 104.171875 115.027344 104.164062 Z M 112.851562 50.027344 C 112.515625 50.023438 112.433594 49.867188 112.535156 49.722656 C 112.625 49.589844 112.785156 49.445312 113.113281 49.492188 C 113.214844 49.507812 113.25 49.652344 113.3125 49.738281 C 113.273438 49.886719 113.175781 50.035156 112.851562 50.027344 Z M 110.136719 49.390625 C 110.011719 49.324219 109.785156 49.257812 109.789062 49.191406 C 109.808594 48.941406 110.1875 48.886719 110.570312 48.882812 C 110.882812 48.882812 111.175781 49.003906 111.074219 49.15625 C 110.945312 49.355469 110.542969 49.410156 110.136719 49.390625 Z M 105.964844 50.335938 C 105.78125 50.339844 105.59375 50.335938 105.335938 50.335938 C 105.140625 50.304688 104.835938 50.296875 104.625 50.214844 C 104.4375 50.140625 104.304688 49.992188 104.253906 49.867188 C 104.222656 49.800781 104.394531 49.695312 104.519531 49.628906 C 104.964844 49.402344 105.53125 49.421875 106.085938 49.460938 C 106.546875 49.496094 107.007812 49.546875 107.101562 49.855469 C 107.179688 50.109375 106.707031 50.3125 105.964844 50.335938 Z M 101.835938 50.140625 C 101.519531 50.078125 101.453125 49.925781 101.613281 49.789062 C 101.773438 49.648438 102.074219 49.609375 102.328125 49.703125 C 102.433594 49.742188 102.421875 49.867188 102.464844 49.953125 C 102.339844 50.097656 102.144531 50.199219 101.835938 50.140625 Z M 98.371094 50.40625 C 98.246094 50.355469 98.125 50.238281 98.144531 50.160156 C 98.210938 49.835938 98.941406 49.59375 99.597656 49.671875 C 99.886719 49.703125 100.023438 49.835938 100.035156 50 C 99.917969 50.414062 99.015625 50.640625 98.371094 50.40625 Z M 85.296875 106.464844 C 85.257812 106.5 85.160156 106.519531 85.085938 106.546875 C 85.007812 106.539062 84.867188 106.546875 84.851562 106.53125 C 84.546875 106.132812 84.117188 105.734375 84.503906 105.296875 C 84.59375 105.1875 84.933594 105.074219 85.140625 105.082031 C 85.34375 105.09375 85.632812 105.238281 85.691406 105.355469 C 85.898438 105.746094 85.671875 106.117188 85.296875 106.464844 Z M 78.542969 105.410156 C 78.34375 105.496094 78.085938 105.539062 77.878906 105.597656 C 77.753906 105.5625 77.621094 105.542969 77.617188 105.519531 C 77.605469 105.433594 77.582031 105.320312 77.667969 105.269531 C 77.929688 105.121094 78.28125 105.078125 78.632812 105.1875 C 78.675781 105.199219 78.636719 105.371094 78.542969 105.410156 Z M 45.105469 105.582031 C 44.796875 105.535156 44.644531 105.414062 44.632812 105.25 C 44.726562 105.015625 45.03125 104.925781 45.453125 104.933594 C 45.753906 104.945312 45.980469 105.03125 46.035156 105.195312 C 46.121094 105.445312 45.613281 105.652344 45.105469 105.582031 Z M 30.925781 103.886719 C 30.285156 103.863281 29.753906 103.488281 29.875 103.144531 C 30.003906 102.75 30.554688 102.519531 31.253906 102.5625 C 31.871094 102.597656 32.234375 102.855469 32.140625 103.195312 C 32.027344 103.613281 31.503906 103.910156 30.925781 103.886719 Z M 28.660156 100.78125 C 28.519531 100.824219 28.152344 100.804688 28.136719 100.777344 C 27.875 100.316406 27.152344 100.007812 26.738281 99.597656 C 26.699219 99.5625 26.722656 99.503906 26.714844 99.402344 C 26.816406 99.320312 26.925781 99.179688 27.125 99.09375 C 27.433594 98.957031 27.875 98.9375 28.15625 99.074219 C 28.941406 99.457031 29.320312 99.949219 29.242188 100.511719 C 29.230469 100.613281 28.890625 100.71875 28.660156 100.78125 Z M 27.710938 67.730469 C 27.433594 67.714844 27.144531 67.601562 27.242188 67.433594 C 27.332031 67.273438 27.671875 67.292969 28.125 67.304688 C 28.945312 67.417969 29.953125 67.535156 30.929688 67.699219 C 31.414062 67.78125 31.621094 68.003906 31.539062 68.289062 C 31.460938 68.578125 30.917969 68.761719 30.574219 68.582031 C 29.765625 68.152344 28.902344 67.804688 27.710938 67.730469 Z M 134.632812 43.699219 C 134.667969 43.695312 134.867188 43.882812 134.851562 43.886719 C 134.664062 43.96875 134.441406 44.03125 134.230469 44.097656 C 134.117188 44 134.042969 43.933594 133.964844 43.867188 C 134.1875 43.808594 134.402344 43.738281 134.632812 43.699219 Z M 254.699219 50.421875 C 255.09375 50.429688 255.382812 50.554688 255.484375 50.753906 C 255.511719 50.8125 255.351562 50.949219 255.242188 50.964844 C 254.824219 51.015625 254.269531 50.769531 254.328125 50.566406 C 254.347656 50.507812 254.570312 50.421875 254.699219 50.421875 Z M 277.609375 65.371094 C 276.871094 64.898438 277.070312 64.570312 277.21875 64.25 C 277.242188 64.199219 277.527344 64.128906 277.632812 64.152344 C 277.773438 64.183594 277.957031 64.296875 277.945312 64.363281 C 277.890625 64.640625 277.769531 64.914062 277.609375 65.371094 Z M 293.691406 84.003906 C 292.527344 83.976562 292.527344 83.960938 292.375 83.304688 C 292.214844 82.625 292.121094 82.546875 290.789062 82.617188 C 289.902344 82.664062 289.097656 82.695312 288.277344 82.285156 C 289.132812 81.75 289.777344 81.09375 289.140625 80.421875 C 288.453125 79.695312 289 78.976562 288.867188 78.257812 C 288.78125 77.789062 289.5 77.332031 290.441406 77.097656 C 291.199219 76.914062 291.375 77.546875 292.117188 77.425781 C 292.109375 76.878906 292.082031 76.339844 292.113281 75.800781 C 292.128906 75.617188 292.574219 75.40625 292.25 75.253906 C 291.726562 75.003906 291.492188 75.394531 291.109375 75.460938 C 290.4375 75.578125 290.378906 75.230469 290.230469 75.023438 C 289.941406 74.621094 290.242188 74.40625 290.976562 74.460938 C 291.679688 74.515625 292.378906 74.816406 293.058594 74.398438 C 293.316406 74.242188 294.117188 74.328125 293.832031 73.9375 C 293.683594 73.734375 293.28125 73.664062 292.898438 73.65625 C 292.425781 73.648438 291.953125 73.671875 291.476562 73.683594 C 291.101562 73.695312 290.71875 73.726562 290.34375 73.714844 C 289.550781 73.6875 289.050781 73.402344 289.375 73.015625 C 289.5625 72.789062 289.738281 72.550781 289.804688 72.308594 C 289.839844 72.183594 289.707031 71.984375 289.523438 71.921875 C 288.96875 71.734375 288.351562 71.597656 287.757812 71.441406 C 287.222656 71.300781 287.132812 70.804688 286.289062 70.894531 C 285.820312 71.636719 285.332031 72.335938 286.050781 73.085938 C 286.210938 73.253906 286.082031 73.480469 285.707031 73.605469 C 285.375 73.714844 284.921875 73.515625 284.773438 73.171875 C 284.574219 72.734375 284.535156 72.265625 284.207031 71.859375 C 283.566406 71.074219 283.6875 70.265625 284.125 69.523438 C 284.488281 68.90625 284.375 68.476562 283.574219 68.035156 C 283.128906 67.789062 282.960938 67.527344 283.664062 67.300781 C 283.804688 67.257812 283.984375 67.097656 283.980469 67.09375 C 283.425781 66.84375 283.753906 66.382812 283.242188 66.164062 C 282.917969 66.019531 282.371094 66.011719 281.917969 65.960938 C 281.550781 65.921875 281.144531 65.941406 280.808594 65.867188 C 280.59375 65.820312 280.375 65.65625 280.351562 65.535156 C 280.324219 65.410156 280.464844 65.21875 280.65625 65.148438 C 281.039062 65.015625 281.5 64.9375 281.9375 64.84375 C 282.417969 64.746094 283.121094 64.957031 283.40625 64.558594 C 283.039062 64.277344 282.558594 64.488281 282.136719 64.484375 C 281.546875 64.476562 280.90625 64.449219 280.609375 64.171875 C 279.769531 63.390625 278.203125 63.460938 276.890625 63.246094 C 276.328125 63.152344 275.625 63.445312 275.746094 63.742188 C 276.070312 64.511719 275.488281 65.058594 274.539062 65.609375 C 273.765625 66.0625 274.347656 66.570312 275.613281 66.578125 C 276.570312 66.582031 277.507812 66.570312 278.425781 66.75 C 279.152344 66.890625 279.382812 67.15625 278.808594 67.410156 C 277.445312 67.996094 277.351562 68.730469 277.5 69.574219 C 277.589844 70.09375 277.960938 70.515625 278.386719 70.96875 C 278.804688 71.417969 278.246094 71.984375 277.304688 72.1875 C 277.152344 72.222656 276.867188 72.226562 276.777344 72.175781 C 276.320312 71.929688 275.867188 71.679688 275.644531 71.332031 C 275.441406 71.015625 275.5625 70.769531 275.960938 70.507812 C 276.625 70.078125 276.324219 69.546875 276.316406 69.0625 C 276.3125 68.863281 275.832031 68.820312 275.484375 68.757812 C 275.605469 67.992188 275.464844 67.894531 274.355469 68.023438 C 274.078125 68.054688 273.816406 68.132812 273.542969 68.160156 C 272.785156 68.238281 272.363281 68.03125 272.601562 67.679688 C 273.3125 66.636719 273.800781 65.582031 273.339844 64.464844 C 273.179688 64.074219 273.96875 63.671875 273.4375 63.320312 C 272.847656 62.925781 272.011719 63.335938 271.292969 63.257812 C 271.199219 63.246094 271.101562 63.25 271.003906 63.246094 C 269.78125 63.175781 269.191406 62.824219 269.109375 62.148438 C 269.078125 61.882812 269.207031 61.660156 269.484375 61.445312 C 269.644531 61.324219 269.695312 61.191406 269.601562 61.027344 C 269.164062 60.269531 268.0625 59.929688 266.496094 60.117188 C 266.195312 60.148438 266.070312 60.324219 266.285156 60.464844 C 266.515625 60.609375 267.097656 60.757812 267.054688 60.839844 C 266.867188 61.21875 266.308594 60.933594 265.914062 60.941406 C 265.335938 60.957031 265.136719 61.183594 264.824219 61.367188 C 264.621094 61.484375 264.324219 61.511719 264.097656 61.394531 C 263.980469 61.332031 263.925781 61.21875 263.929688 61.125 C 263.941406 60.800781 264.578125 60.460938 263.910156 60.148438 C 263.324219 59.878906 262.613281 59.738281 261.835938 59.699219 C 261.554688 59.6875 261.265625 59.695312 260.980469 59.703125 C 257.359375 59.789062 253.789062 59.4375 250.183594 59.363281 C 249.617188 59.351562 249.054688 59.28125 248.5 59.21875 C 248.09375 59.171875 247.792969 59.019531 247.902344 58.796875 C 248.066406 58.460938 248.230469 58.109375 248.570312 57.820312 C 249.035156 57.429688 249.652344 57.105469 250.6875 57.402344 C 251.078125 57.511719 251.429688 57.398438 251.628906 57.203125 C 251.988281 56.855469 252.1875 56.464844 252.726562 56.160156 C 253.71875 55.59375 254.714844 55.679688 255.265625 56.398438 C 255.371094 56.539062 255.421875 56.6875 255.558594 56.816406 C 255.636719 56.886719 255.84375 56.960938 255.988281 56.957031 C 256.128906 56.957031 256.382812 56.863281 256.386719 56.804688 C 256.449219 56.140625 257.152344 55.433594 255.871094 54.855469 C 255.75 54.804688 255.832031 54.570312 255.941406 54.449219 C 256.089844 54.285156 256.523438 54.183594 256.296875 53.941406 C 256.09375 53.726562 256.179688 53.546875 256.617188 53.460938 C 257.324219 53.324219 258.523438 53.414062 258.753906 53.625 C 258.824219 53.691406 258.761719 53.839844 258.65625 53.894531 C 258.324219 54.078125 257.894531 54.238281 258.214844 54.523438 C 258.574219 54.84375 259.140625 54.84375 259.703125 54.707031 C 260.152344 54.597656 260.59375 54.585938 261.078125 54.597656 C 261.863281 54.617188 262.246094 54.316406 262.539062 53.988281 C 262.609375 53.910156 262.625 53.78125 262.546875 53.710938 C 262.476562 53.644531 262.1875 53.578125 262.085938 53.605469 C 260.960938 53.898438 260.128906 53.753906 259.4375 53.210938 C 259.195312 53.015625 258.738281 52.894531 258.289062 52.703125 C 259.480469 52.285156 260.789062 51.949219 261.855469 52.1875 C 263.070312 52.460938 264.027344 52.324219 265.113281 52.195312 C 266.417969 52.039062 267.710938 52.007812 269.066406 52.054688 C 270.886719 52.113281 272.769531 52.265625 274.550781 51.867188 C 273.773438 51.746094 273.003906 51.628906 272.164062 51.644531 C 268.351562 51.707031 264.582031 51.496094 260.851562 51.089844 C 260.351562 51.039062 259.933594 50.902344 260.238281 50.582031 C 260.410156 50.398438 260.65625 50.238281 260.472656 50.027344 C 260.25 49.777344 259.808594 49.679688 259.316406 49.660156 C 257.890625 49.601562 256.414062 49.402344 255.054688 49.53125 C 252.621094 49.761719 250.332031 49.539062 248.007812 49.269531 C 245.855469 49.015625 243.660156 49.023438 241.472656 49.007812 C 241.195312 49.003906 240.851562 49.023438 240.824219 49.21875 C 240.796875 49.386719 241.109375 49.445312 241.351562 49.515625 C 241.679688 49.613281 242.015625 49.707031 242.300781 49.828125 C 242.59375 49.957031 242.507812 50.257812 242.207031 50.351562 C 241.289062 50.640625 240.378906 50.542969 239.472656 50.34375 C 238.839844 50.199219 238.753906 49.914062 238.753906 49.597656 C 238.75 49.195312 238.410156 48.90625 237.609375 48.875 C 234.570312 48.753906 231.523438 48.527344 228.496094 48.582031 C 226.417969 48.617188 224.320312 48.632812 222.234375 48.703125 C 221.195312 48.738281 220.128906 48.632812 219.105469 48.707031 C 217.296875 48.839844 215.539062 48.820312 213.734375 48.625 C 212.417969 48.484375 211.078125 48.308594 209.914062 49.078125 C 209.234375 49.527344 207.757812 49.371094 206.628906 49.34375 C 205.3125 49.308594 203.980469 49.085938 202.796875 49.589844 C 200.144531 49.617188 197.46875 49.761719 194.851562 49.617188 C 193.359375 49.535156 191.863281 49.328125 190.351562 49.390625 C 188.878906 49.453125 187.40625 48.898438 185.929688 49.410156 C 185.746094 49.472656 185.363281 49.417969 185.097656 49.378906 C 182.640625 48.996094 180.0625 48.914062 177.601562 48.519531 C 175.613281 48.199219 173.644531 48.332031 172.042969 49.160156 C 171.644531 49.367188 171.21875 49.601562 170.609375 49.617188 C 169.089844 49.664062 167.570312 49.75 166.058594 49.710938 C 163.027344 49.632812 160.003906 49.589844 156.972656 49.675781 C 154.980469 49.738281 153.035156 49.542969 151.042969 49.382812 C 151.363281 48.9375 152.175781 48.972656 152.667969 48.753906 C 153.246094 48.496094 153.902344 48.289062 154.53125 48.0625 C 154.984375 47.902344 154.890625 47.78125 154.5 47.628906 C 154.058594 47.453125 154.242188 47.226562 154.621094 47.15625 C 155.78125 46.949219 156.949219 46.71875 158.222656 46.804688 C 158.992188 46.855469 159.761719 46.8125 160.460938 46.652344 C 161.636719 46.390625 162.777344 46.253906 164.050781 46.492188 C 164.792969 46.632812 165.558594 46.46875 166.214844 46.246094 C 166.34375 46.203125 166.441406 46.078125 166.429688 45.996094 C 166.417969 45.914062 166.25 45.789062 166.136719 45.785156 C 165.574219 45.757812 164.996094 45.734375 164.433594 45.757812 C 161.492188 45.886719 158.554688 46.023438 155.621094 46.167969 C 155.046875 46.195312 154.472656 46.230469 153.945312 46.085938 C 153.808594 46.046875 153.683594 45.925781 153.695312 45.847656 C 153.703125 45.777344 153.894531 45.664062 154.03125 45.65625 C 154.6875 45.609375 155.359375 45.613281 156.011719 45.554688 C 156.386719 45.523438 156.949219 45.574219 157.019531 45.234375 C 156.539062 45.097656 156.0625 45.140625 155.617188 45.214844 C 154.6875 45.375 153.742188 45.390625 152.792969 45.339844 C 152.519531 45.320312 152.183594 45.304688 152.191406 45.109375 C 152.195312 45.046875 152.441406 44.984375 152.59375 44.933594 C 152.75 44.875 152.949219 44.847656 153.078125 44.777344 C 153.1875 44.714844 153.308594 44.601562 153.269531 44.535156 C 153.226562 44.464844 152.984375 44.386719 152.847656 44.390625 C 152 44.441406 151.160156 44.535156 150.3125 44.570312 C 149.546875 44.601562 149.203125 44.800781 148.871094 45.164062 C 148.242188 45.851562 147.4375 45.894531 146.585938 45.316406 C 146.28125 45.109375 146.03125 44.835938 145.550781 44.894531 C 144.019531 45.078125 142.273438 44.679688 140.945312 45.363281 C 140.710938 45.488281 140.484375 45.515625 140.230469 45.410156 C 139.535156 45.121094 138.777344 45.277344 138.03125 45.316406 C 135.566406 45.433594 133.097656 45.476562 130.628906 45.390625 C 129.777344 45.363281 129.3125 45.167969 129.453125 44.921875 C 129.613281 44.644531 130.515625 44.378906 131.070312 44.476562 C 131.320312 44.523438 131.597656 44.613281 131.738281 44.722656 C 132.414062 45.246094 133.160156 45.25 134.183594 44.96875 C 134.921875 44.761719 135.808594 44.699219 136.636719 44.589844 C 137.761719 44.441406 138.875 44.402344 139.867188 43.9375 C 140.707031 43.539062 141.953125 43.441406 142.808594 44.136719 C 143.105469 44.375 143.636719 44.351562 144.085938 44.207031 C 144.65625 44.019531 145.210938 43.828125 145.765625 43.636719 C 147.683594 42.980469 147.75 42.980469 149.757812 43.695312 C 150.167969 43.839844 150.472656 43.808594 150.65625 43.574219 C 150.757812 43.4375 150.710938 43.269531 150.839844 43.144531 C 151.140625 42.847656 151.769531 42.855469 152.039062 43.199219 C 152.226562 43.433594 152.398438 43.5625 152.824219 43.449219 C 153.414062 43.292969 153.96875 43.09375 154.519531 42.898438 C 154.984375 42.734375 155.710938 42.710938 155.972656 42.242188 C 154.144531 42.355469 152.550781 42.480469 150.949219 42.550781 C 148.332031 42.664062 145.726562 43.164062 143.074219 42.644531 C 142.949219 42.621094 142.671875 42.675781 142.601562 42.738281 C 142.089844 43.171875 141.285156 43.0625 140.542969 43.0625 C 139.695312 43.0625 138.851562 42.945312 138.011719 43.152344 C 137.578125 43.253906 137.085938 43.21875 136.644531 43.082031 C 135.640625 42.769531 134.640625 42.878906 133.636719 43.09375 C 133.285156 43.167969 132.921875 43.277344 132.566406 43.277344 C 131.902344 43.269531 131.136719 43.203125 131 42.796875 C 130.910156 42.515625 130.710938 42.410156 130.328125 42.546875 C 128.945312 43.03125 127.433594 42.957031 125.910156 42.902344 C 125.050781 42.871094 124.1875 42.882812 123.339844 42.828125 C 121.621094 42.71875 120.09375 42.910156 118.921875 43.597656 C 118.152344 44.054688 117.308594 44.0625 116.347656 43.859375 C 114.511719 43.480469 112.640625 43.511719 110.726562 43.660156 C 108.574219 43.832031 106.421875 44.09375 104.210938 43.910156 C 103.847656 43.875 103.417969 43.894531 103.085938 43.96875 C 101.265625 44.382812 99.355469 44.304688 97.453125 44.304688 C 96.886719 44.304688 96.292969 44.292969 95.75 44.367188 C 94.179688 44.585938 92.609375 44.761719 90.96875 44.703125 C 90.5625 44.6875 90.21875 44.800781 90.117188 45.015625 C 90.003906 45.246094 90.332031 45.378906 90.636719 45.503906 C 90.914062 45.617188 91.382812 45.625 91.433594 46.007812 C 90.746094 46.222656 90.105469 46.570312 89.660156 47.019531 C 89.132812 47.554688 89.171875 47.984375 90.066406 48.320312 C 90.59375 48.515625 91.222656 48.675781 91.851562 48.761719 C 92.859375 48.898438 93.902344 48.972656 94.9375 49.050781 C 95.9375 49.128906 96.410156 49.433594 96.570312 49.941406 C 96.699219 50.359375 96.523438 50.542969 95.765625 50.519531 C 94.152344 50.464844 92.539062 50.394531 90.929688 50.308594 C 90.554688 50.292969 90.15625 50.191406 89.839844 50.324219 C 88.886719 50.726562 87.8125 50.675781 86.859375 50.449219 C 85.863281 50.207031 84.710938 50.15625 83.902344 49.632812 C 83.089844 49.101562 82.167969 49.238281 81.8125 49.863281 C 81.539062 50.335938 81.429688 50.832031 81.15625 51.308594 C 80.597656 52.257812 80.46875 52.34375 78.578125 52.371094 C 73.441406 52.433594 68.304688 52.464844 63.175781 52.246094 C 61.183594 52.160156 59.195312 51.957031 57.210938 51.96875 C 55.050781 51.976562 52.644531 51.960938 51.546875 53.234375 C 50.886719 54 49.871094 54.511719 48.648438 54.996094 C 47.007812 55.644531 47.054688 55.675781 45.179688 55.671875 C 44.878906 56.019531 45.394531 56.332031 45.332031 56.679688 C 45.25 57.105469 44.464844 57.191406 44.152344 57.480469 C 43.742188 57.867188 43.429688 58.285156 43.117188 58.699219 C 42.9375 58.9375 43.238281 59.082031 43.644531 59.109375 C 44.015625 59.132812 44.398438 59.085938 44.777344 59.070312 C 47.054688 58.988281 47.429688 59.136719 47.820312 60.28125 C 47.867188 60.429688 47.832031 60.597656 47.960938 60.71875 C 48.085938 60.828125 48.457031 60.988281 48.585938 60.960938 C 49.945312 60.667969 51.40625 61.195312 52.769531 60.773438 C 53.335938 60.601562 53.816406 60.890625 54.15625 61.148438 C 54.394531 61.328125 54.160156 61.625 53.785156 61.578125 C 52.898438 61.464844 52.089844 61.554688 51.285156 61.730469 C 50.816406 61.828125 50.449219 61.972656 50.550781 62.28125 C 50.621094 62.511719 50.539062 62.691406 50.019531 62.691406 C 49.601562 62.691406 49.21875 62.566406 49.210938 62.347656 C 49.1875 61.9375 48.582031 61.761719 48.097656 61.800781 C 46.832031 61.902344 45.414062 61.679688 44.304688 62.171875 C 43.398438 62.566406 42.46875 62.652344 41.402344 62.371094 C 41.175781 62.3125 40.769531 62.28125 40.613281 62.34375 C 39.664062 62.738281 38.933594 62.539062 38.078125 62.21875 C 37.398438 61.960938 36.640625 62.117188 36 62.40625 C 35.683594 62.554688 35.316406 62.484375 34.992188 62.339844 C 33.558594 61.6875 33.570312 61.691406 32.789062 62.546875 C 32.585938 62.769531 32.429688 62.988281 32.339844 63.238281 C 32.105469 63.898438 31.996094 63.925781 30.9375 63.941406 C 30.558594 63.945312 30.171875 63.949219 29.796875 63.921875 C 27.429688 63.75 25.308594 64.25 23.132812 64.597656 C 22.878906 64.636719 22.667969 64.757812 22.457031 64.855469 C 21.980469 65.078125 22.003906 65.449219 22.519531 65.628906 C 22.835938 65.738281 23.183594 65.828125 23.53125 65.902344 C 24.46875 66.105469 25.113281 66.464844 25.46875 66.949219 C 25.921875 67.5625 26.648438 68.070312 28.089844 68.757812 C 26.617188 68.589844 25.78125 68.414062 24.976562 68.550781 C 24.089844 68.699219 23.296875 68.5625 22.472656 68.429688 C 22.320312 68.410156 22.089844 68.449219 21.933594 68.496094 C 21.363281 68.660156 20.921875 69 20.171875 68.90625 C 19.234375 68.792969 19.390625 68.273438 18.996094 67.953125 C 18.894531 67.871094 18.8125 67.78125 18.703125 67.699219 C 18.460938 67.515625 17.683594 67.488281 17.429688 67.660156 C 17.253906 67.777344 17.027344 67.90625 16.988281 68.039062 C 16.816406 68.664062 15.996094 69.074219 15.390625 69.570312 C 14.515625 70.296875 12.996094 70.929688 13.410156 71.964844 C 12.519531 72.855469 12.867188 73.675781 13.804688 74.503906 C 14.308594 74.949219 14.15625 75.347656 13.292969 75.503906 C 11.363281 75.84375 10.96875 76.769531 10.242188 77.546875 C 9.804688 78.019531 9.929688 78.53125 10.84375 78.894531 C 11.523438 79.164062 12.210938 79.433594 12.859375 79.722656 C 13.050781 79.808594 13.234375 79.964844 13.234375 80.085938 C 13.230469 80.242188 12.898438 80.289062 12.617188 80.328125 C 9.148438 80.785156 9.148438 80.785156 8.058594 82.460938 C 7.964844 82.601562 7.808594 82.734375 7.738281 82.875 C 7.332031 83.714844 7.179688 84.574219 7.757812 85.386719 C 8.179688 85.976562 8.269531 86.503906 7.992188 87.121094 C 7.589844 88.011719 7.738281 88.863281 8.914062 89.671875 C 9.410156 90.011719 10.441406 90.507812 9.59375 91.125 C 9.550781 91.15625 9.722656 91.332031 9.84375 91.351562 C 10.976562 91.535156 11.019531 92.402344 12.355469 92.449219 C 15.179688 93.707031 17.042969 95.164062 16.015625 97.234375 C 15.828125 97.609375 15.882812 97.925781 16.589844 98.132812 C 17.089844 98.28125 17.144531 98.507812 17.011719 98.777344 C 16.808594 99.195312 17.265625 99.328125 17.933594 99.296875 C 18.644531 99.265625 19.394531 99.265625 19.632812 99.664062 C 20.089844 100.417969 21.003906 100.625 22.382812 100.46875 C 22.496094 100.457031 22.746094 100.566406 22.78125 100.640625 C 22.808594 100.707031 22.660156 100.851562 22.539062 100.875 C 21.914062 100.988281 21.234375 101.027344 20.652344 101.175781 C 20.253906 101.277344 19.921875 101.496094 19.683594 101.699219 C 19.472656 101.882812 19.71875 102.074219 19.945312 102.242188 C 20.171875 102.414062 20.222656 102.613281 20.0625 102.8125 C 19.523438 103.472656 20.015625 104.179688 19.722656 104.875 C 19.523438 105.347656 19.910156 105.992188 20.441406 106.414062 C 20.953125 106.828125 22.03125 106.5 22.863281 106.488281 C 23.433594 106.484375 24.003906 106.515625 24.578125 106.515625 C 25.363281 106.515625 26.105469 106.433594 26.625 106.089844 C 27.097656 105.773438 27.554688 105.722656 28.339844 105.867188 C 29.800781 106.132812 31.3125 106.148438 32.664062 105.617188 C 33.707031 105.207031 34.691406 105.199219 35.757812 105.667969 C 36.390625 105.945312 36.992188 105.824219 37.445312 105.472656 C 37.65625 105.308594 37.8125 105.125 37.980469 104.945312 C 38.628906 104.265625 38.761719 104.246094 40.082031 104.609375 C 40.664062 104.773438 41.28125 104.90625 41.851562 105.078125 C 42.101562 105.152344 42.214844 105.3125 42.082031 105.460938 C 42.019531 105.53125 41.792969 105.609375 41.65625 105.601562 C 40.996094 105.5625 40.347656 105.492188 39.691406 105.445312 C 39.414062 105.425781 39.09375 105.394531 38.863281 105.449219 C 38.640625 105.5 38.414062 105.644531 38.351562 105.769531 C 38.269531 105.929688 38.546875 106.03125 38.835938 106.0625 C 39.675781 106.144531 40.617188 106.117188 41.34375 106.3125 C 43.371094 106.855469 45.546875 106.859375 47.714844 106.964844 C 48.5625 107.003906 49.433594 107.039062 50.242188 107.164062 C 51.546875 107.367188 53.042969 107.539062 54.167969 107.402344 C 55.148438 107.28125 56.054688 107.25 56.894531 107.570312 C 57.570312 107.828125 58.308594 107.824219 59.078125 107.769531 C 60.703125 107.652344 62.300781 107.710938 63.871094 107.984375 C 64.304688 108.066406 64.808594 108.082031 65.265625 108.054688 C 65.753906 108.027344 66.167969 107.882812 66.191406 107.578125 C 66.207031 107.347656 65.929688 107.191406 65.558594 107.132812 C 65.019531 107.054688 64.449219 107.019531 63.894531 106.976562 C 62.671875 106.871094 61.449219 106.785156 60.238281 106.671875 C 60.132812 106.664062 60.050781 106.535156 60.003906 106.457031 C 59.988281 106.433594 60.101562 106.363281 60.179688 106.351562 C 60.355469 106.320312 60.550781 106.296875 60.734375 106.296875 C 62.066406 106.300781 63.425781 106.242188 64.675781 106.535156 C 65.882812 106.816406 67.132812 106.550781 68.339844 106.671875 C 68.488281 106.6875 68.679688 106.789062 68.714844 106.867188 C 68.746094 106.941406 68.652344 107.070312 68.53125 107.117188 C 68.3125 107.207031 68 107.238281 67.785156 107.328125 C 67.355469 107.511719 67.304688 107.753906 67.632812 107.984375 C 67.882812 108.164062 68.28125 108.203125 68.65625 108.121094 C 69.53125 107.921875 70.386719 107.703125 71.25 107.496094 L 71.214844 107.511719 C 71.234375 107.511719 71.257812 107.511719 71.273438 107.515625 C 71.265625 107.507812 71.257812 107.5 71.25 107.496094 C 72.242188 106.816406 73.726562 106.8125 75.105469 106.804688 C 77.101562 106.796875 79.097656 106.90625 81.09375 106.964844 C 81.96875 106.992188 82.738281 107.144531 83.480469 107.402344 C 84.710938 107.828125 85.714844 107.769531 86.667969 107.210938 C 86.980469 107.027344 87.160156 106.796875 87.703125 106.765625 C 88.652344 106.710938 89.15625 106.386719 89.65625 105.988281 C 90.410156 105.390625 91.585938 105.121094 92.882812 105.371094 C 93.84375 105.550781 94.679688 105.558594 95.632812 105.417969 C 97.085938 105.203125 98.417969 105.632812 99.816406 105.730469 C 100.042969 105.742188 100.273438 105.902344 100.429688 106.019531 C 100.699219 106.222656 100.902344 106.449219 101.15625 106.660156 C 101.34375 106.820312 101.539062 107.046875 101.976562 106.90625 C 102.136719 106.855469 102.183594 106.636719 102.15625 106.496094 C 102.035156 105.851562 101.816406 105.222656 100.597656 104.808594 C 103.414062 104.285156 104.441406 104.574219 104.398438 106.179688 C 104.398438 106.230469 104.382812 106.28125 104.394531 106.328125 C 104.445312 106.511719 105.097656 106.660156 105.289062 106.507812 C 105.984375 105.941406 106.988281 106.015625 108.027344 106.050781 C 111.632812 106.179688 115.242188 106.292969 118.847656 106.414062 C 119.226562 106.425781 119.613281 106.46875 119.988281 106.449219 C 120.394531 106.433594 120.914062 106.597656 121.207031 106.296875 C 121.027344 106.242188 120.871094 106.152344 120.71875 106.152344 C 117.574219 106.179688 114.492188 105.917969 111.410156 105.632812 C 110.945312 105.589844 110.460938 105.609375 109.988281 105.582031 C 109.328125 105.539062 108.664062 105.5 108.015625 105.421875 C 107.707031 105.386719 107.203125 105.394531 107.339844 105.066406 C 108.527344 104.808594 109.757812 104.914062 110.984375 104.949219 C 112.03125 104.976562 113.074219 104.996094 114.121094 104.988281 C 117.140625 104.964844 120.152344 105.136719 123.175781 105.085938 C 123.363281 105.085938 123.554688 105.101562 123.742188 105.117188 C 126.363281 105.335938 129.011719 105.324219 131.652344 105.359375 C 131.746094 105.359375 131.84375 105.355469 131.9375 105.351562 C 132.457031 105.328125 132.550781 105.203125 132.316406 104.964844 C 132.085938 104.730469 132.972656 104.5 132.464844 104.308594 C 132.125 104.179688 131.539062 104.253906 131.09375 104.179688 C 130.273438 104.042969 130.378906 104.558594 129.941406 104.609375 C 129.015625 104.71875 128.066406 104.773438 127.121094 104.808594 C 126.394531 104.839844 125.960938 104.691406 125.648438 104.277344 C 125.226562 103.726562 124.214844 103.621094 123.378906 103.945312 C 123.15625 104.03125 123.039062 104.1875 122.832031 104.289062 C 122.203125 104.597656 121.449219 104.585938 120.6875 104.476562 C 120.09375 104.386719 119.738281 104.039062 119.792969 103.628906 C 119.832031 103.316406 120.238281 103.210938 120.746094 103.175781 C 121.3125 103.140625 121.878906 103.085938 122.4375 103.085938 C 124.71875 103.089844 126.996094 103.101562 129.273438 103.128906 C 130.132812 103.140625 130.445312 102.992188 130.410156 102.519531 C 130.386719 102.242188 130.972656 102.117188 131.46875 102.167969 C 133.699219 102.402344 135.929688 102.554688 138.214844 102.40625 C 138.570312 102.382812 138.960938 102.46875 139.324219 102.519531 C 140.335938 102.65625 140.96875 102.449219 141.332031 101.949219 C 141.464844 101.765625 141.660156 101.589844 141.871094 101.421875 C 142.125 101.21875 142.816406 101.183594 143.03125 101.429688 C 143.378906 101.835938 143.941406 101.890625 144.628906 101.894531 C 145.007812 101.894531 145.429688 101.8125 145.753906 101.875 C 146.539062 102.027344 146.9375 101.839844 147.4375 101.558594 C 148.101562 101.183594 148.917969 100.9375 149.988281 101.207031 C 150.296875 101.285156 150.734375 101.246094 151.109375 101.234375 C 153.46875 101.148438 155.8125 101.023438 158.1875 101.269531 C 159.5625 101.410156 159.660156 101.261719 159.375 100.457031 C 159.308594 100.269531 159.320312 100.058594 159.410156 99.867188 C 159.46875 99.742188 159.683594 99.59375 159.90625 99.539062 C 160.183594 99.46875 160.480469 99.566406 160.546875 99.730469 C 160.789062 100.351562 161.503906 100.542969 162.632812 100.410156 C 162.902344 100.382812 163.203125 100.433594 163.480469 100.417969 C 164.585938 100.355469 165.726562 100.351562 166.164062 99.617188 C 166.289062 99.402344 166.828125 99.449219 167.140625 99.566406 C 167.4375 99.675781 167.679688 99.839844 167.878906 100 C 168.25 100.300781 168.667969 100.34375 169.324219 100.234375 C 170.386719 100.070312 171.597656 100.15625 172.382812 99.578125 C 172.777344 99.285156 173.394531 99.371094 173.886719 99.589844 C 174.230469 99.742188 174.46875 100.035156 175.046875 99.898438 C 175.515625 99.785156 175.640625 99.53125 175.769531 99.285156 C 175.847656 99.144531 175.925781 98.996094 176.074219 98.875 C 176.429688 98.589844 177.363281 98.492188 177.859375 98.691406 C 178.34375 98.882812 178.210938 99.121094 177.972656 99.355469 C 177.929688 99.402344 177.867188 99.441406 177.839844 99.488281 C 177.683594 99.726562 177.855469 99.902344 178.3125 99.917969 C 179.0625 99.949219 179.824219 99.890625 180.566406 99.933594 C 182.300781 100.035156 182.289062 100.050781 183.105469 99.265625 C 183.273438 99.105469 183.359375 98.890625 183.996094 98.863281 C 184.417969 99.480469 185.265625 99.777344 186.621094 99.542969 C 187.175781 99.449219 187.503906 99.621094 187.65625 99.902344 C 187.855469 100.273438 188.402344 100.382812 188.980469 100.234375 C 190.1875 99.921875 191.375 100.023438 192.597656 100.160156 C 193.53125 100.261719 194.496094 100.339844 195.429688 100.207031 C 196.636719 100.027344 197.800781 99.914062 199.074219 100.0625 C 199.910156 100.164062 200.445312 99.832031 200.464844 99.332031 C 200.472656 99.085938 200.355469 98.84375 200.355469 98.597656 C 200.355469 98.519531 200.527344 98.414062 200.671875 98.371094 C 200.957031 98.292969 201.242188 98.351562 201.410156 98.480469 C 201.566406 98.601562 201.703125 98.742188 201.753906 98.886719 C 202.042969 99.71875 203.191406 100.007812 204.597656 100.125 C 205.066406 100.164062 205.546875 100.164062 206.015625 100.199219 C 207.851562 100.34375 207.847656 100.347656 207.761719 99.269531 C 207.753906 99.183594 207.851562 99.089844 207.921875 98.960938 C 208.175781 99.03125 208.566406 99.066406 208.628906 99.164062 C 209.074219 99.863281 210.253906 99.953125 211.34375 100.085938 C 212.371094 100.214844 213.15625 100.03125 213.785156 99.554688 C 214.613281 98.925781 214.808594 98.890625 215.699219 99.292969 C 216.941406 99.847656 218.242188 100.066406 219.878906 99.898438 C 221.277344 99.753906 222.734375 99.796875 224.039062 100.148438 C 224.824219 100.363281 225.515625 100.351562 226.167969 100.09375 C 227.160156 99.699219 228.09375 99.746094 229.0625 100.089844 C 229.292969 100.171875 229.535156 100.261719 229.800781 100.308594 C 230.324219 100.398438 230.757812 100.277344 230.992188 100.035156 C 231.160156 99.871094 231.171875 99.660156 231.269531 99.46875 C 231.550781 98.910156 231.9375 98.835938 232.804688 99.242188 C 233.667969 99.644531 234.542969 100.019531 235.726562 100.121094 C 236.222656 100.160156 236.679688 100.136719 236.949219 99.871094 C 237.082031 99.738281 237.183594 99.59375 237.359375 99.476562 C 238.105469 98.964844 238.800781 98.925781 239.765625 99.34375 C 240.277344 99.566406 240.722656 99.828125 241.25 100.042969 C 241.914062 100.3125 242.5 100.257812 242.933594 99.890625 C 243.4375 99.46875 243.875 99.027344 244.382812 98.605469 C 244.769531 98.289062 245.410156 98.28125 245.761719 98.574219 C 245.917969 98.699219 246.050781 98.839844 246.140625 98.976562 C 246.578125 99.632812 247.574219 99.933594 248.710938 100.1875 C 249.238281 100.308594 249.570312 100.335938 249.925781 100.085938 C 250.089844 99.964844 250.292969 99.851562 250.527344 99.773438 C 251.839844 99.332031 252.523438 99.390625 253.695312 100.035156 C 254.027344 100.214844 254.304688 100.429688 254.835938 100.433594 C 255.003906 100.4375 255.1875 100.390625 255.347656 100.34375 C 255.402344 100.328125 255.453125 100.253906 255.433594 100.21875 C 255.378906 100.128906 255.3125 100.035156 255.203125 99.960938 C 253.996094 99.171875 254.613281 98.347656 255.058594 97.539062 C 255.195312 97.300781 255.734375 97.183594 256.238281 97.195312 C 256.671875 97.203125 256.84375 97.390625 256.945312 97.597656 C 257.167969 98.03125 257.363281 98.46875 257.640625 98.890625 C 257.929688 99.339844 258.53125 99.511719 259.398438 99.457031 C 260.433594 99.390625 261.132812 99.113281 261.539062 98.597656 C 262.007812 98 261.570312 97.59375 260.371094 97.578125 C 260.09375 97.578125 259.808594 97.648438 259.527344 97.648438 C 258.496094 97.632812 258.019531 97.34375 258.105469 96.78125 C 258.132812 96.585938 258.183594 96.386719 258.246094 96.191406 C 258.375 95.773438 258.824219 95.597656 259.882812 95.5625 C 260.566406 95.539062 260.953125 95.707031 260.949219 96.085938 C 260.9375 96.664062 261.660156 96.863281 262.589844 96.921875 C 263.054688 96.953125 263.539062 96.945312 264.007812 96.917969 C 264.429688 96.894531 264.742188 96.742188 264.597656 96.507812 C 264.328125 96.070312 264.519531 95.808594 265.445312 95.816406 C 266.304688 95.820312 267.082031 95.683594 267.964844 95.476562 C 268.058594 95.765625 268.109375 96.007812 268.222656 96.246094 C 268.292969 96.378906 268.40625 96.585938 268.589844 96.617188 C 269.179688 96.714844 269.023438 96.402344 269.167969 96.257812 C 269.378906 96.054688 269.730469 95.996094 270.117188 96.007812 C 271.34375 96.035156 272.050781 95.644531 272.601562 95.15625 C 273.007812 94.792969 273.332031 94.40625 273.699219 94.027344 C 273.207031 93.878906 272.808594 93.757812 272.40625 93.636719 C 273.046875 93.03125 273.074219 93.003906 273.984375 93.152344 C 274.53125 93.238281 275.078125 93.390625 275.640625 93.292969 C 277.433594 92.976562 279.410156 92.964844 281.058594 92.410156 C 281.613281 92.222656 281.898438 92.210938 282.390625 92.558594 C 282.902344 92.925781 284.257812 92.679688 284.378906 92.25 C 284.460938 91.960938 284.417969 91.65625 284.394531 91.359375 C 284.351562 90.808594 284.273438 90.261719 284.230469 89.714844 C 284.210938 89.503906 284.390625 89.320312 284.773438 89.234375 C 285.308594 89.109375 285.683594 89.25 285.945312 89.492188 C 286.261719 89.78125 286.488281 90.125 287.34375 90.125 C 287.402344 89.652344 286.933594 89.246094 287.058594 88.785156 C 287.195312 88.273438 288.023438 88.070312 288.472656 87.703125 C 288.519531 87.667969 288.480469 87.601562 288.527344 87.558594 C 288.988281 87.152344 289.035156 87.128906 289.667969 87.464844 C 290.082031 87.683594 290.582031 88.023438 291.035156 87.765625 C 292.148438 87.125 293.878906 87.246094 295.082031 86.726562 C 295.929688 86.359375 297.328125 86.460938 297.984375 85.871094 C 298.582031 85.332031 298.050781 84.710938 298.628906 84.089844 C 296.878906 84.058594 295.285156 84.042969 293.691406 84.003906 " fill-opacity="1" fill-rule="nonzero"/></g><path fill="rgb(100%, 100%, 100%)" d="M 259.921875 55.921875 C 260.863281 55.746094 261.523438 55.867188 262.050781 56.34375 C 262.308594 56.582031 262.925781 56.488281 263.144531 56.234375 C 263.496094 55.824219 263.269531 55.503906 262.539062 55.425781 C 261.984375 55.371094 261.417969 55.339844 260.46875 55.273438 C 260.199219 55.261719 259.539062 55.210938 258.886719 55.230469 C 258.542969 55.238281 258.113281 55.320312 257.894531 55.449219 C 257.027344 55.960938 257.085938 56.769531 257.992188 57.355469 C 258.082031 57.414062 258.332031 57.414062 258.507812 57.417969 C 258.570312 57.417969 258.683594 57.359375 258.699219 57.320312 C 258.761719 57.179688 258.859375 57.027344 258.820312 56.886719 C 258.761719 56.699219 258.53125 56.511719 258.761719 56.320312 C 259.027344 56.097656 259.46875 56.003906 259.921875 55.921875 " fill-opacity="1" fill-rule="nonzero"/><path fill="rgb(100%, 100%, 100%)" d="M 48.996094 53.285156 C 49.171875 53.285156 49.394531 53.097656 49.503906 52.972656 C 49.5625 52.90625 49.480469 52.765625 49.371094 52.707031 C 48.550781 52.257812 47.417969 52.164062 46.351562 52.007812 C 46.085938 51.96875 45.855469 52.113281 45.8125 52.34375 C 45.847656 52.429688 45.816406 52.628906 45.984375 52.703125 C 46.84375 53.089844 47.871094 53.289062 48.996094 53.285156 " fill-opacity="1" fill-rule="nonzero"/><path fill="rgb(100%, 100%, 100%)" d="M 112.070312 106.78125 C 111.875 106.992188 112.171875 107.167969 112.515625 107.242188 C 113.5625 107.476562 114.683594 107.425781 116.261719 107.4375 C 115.050781 106.832031 113.90625 106.667969 112.722656 106.585938 C 112.519531 106.570312 112.167969 106.679688 112.070312 106.78125 " fill-opacity="1" fill-rule="nonzero"/><path fill="rgb(100%, 100%, 100%)" d="M 272.277344 60.453125 C 271.597656 60.792969 271.542969 61.101562 272.0625 61.488281 C 272.4375 61.761719 272.835938 62.023438 273.3125 62.355469 C 274.128906 61.589844 273.222656 61.050781 273.019531 60.464844 C 272.96875 60.328125 272.492188 60.347656 272.277344 60.453125 " fill-opacity="1" fill-rule="nonzero"/><path fill="rgb(100%, 100%, 100%)" d="M 171.382812 46.234375 C 171.867188 46.355469 172.3125 46.253906 172.601562 46.035156 C 172.75 45.925781 172.847656 45.753906 172.800781 45.628906 C 172.703125 45.390625 172.269531 45.402344 171.898438 45.390625 C 171.808594 45.390625 171.710938 45.390625 170.972656 45.390625 C 171.152344 45.390625 170.683594 45.382812 170.21875 45.40625 C 170.058594 45.414062 169.859375 45.488281 169.789062 45.5625 C 169.742188 45.613281 169.832031 45.75 169.941406 45.789062 C 170.40625 45.949219 170.878906 46.109375 171.382812 46.234375 " fill-opacity="1" fill-rule="nonzero"/><path fill="rgb(100%, 100%, 100%)" d="M 136.398438 104.363281 C 135.523438 104.273438 135.597656 104.667969 135.382812 104.914062 C 135.234375 105.082031 134.726562 105.125 134.804688 105.382812 C 135.839844 105.691406 136.921875 105.652344 138.285156 105.460938 C 137.632812 105.238281 137.101562 105.222656 136.894531 104.960938 C 136.738281 104.761719 137.097656 104.4375 136.398438 104.363281 " fill-opacity="1" fill-rule="nonzero"/><path fill="rgb(100%, 100%, 100%)" d="M 120.570312 107.042969 C 120.027344 106.984375 119.453125 106.859375 119.058594 107.1875 C 118.816406 107.390625 119.460938 107.570312 120.84375 107.613281 C 121.015625 107.601562 121.480469 107.582031 121.941406 107.546875 C 122.007812 107.539062 122.121094 107.476562 122.113281 107.449219 C 122.082031 107.367188 122.035156 107.230469 121.9375 107.214844 C 121.492188 107.140625 121.027344 107.097656 120.570312 107.042969 " fill-opacity="1" fill-rule="nonzero"/><path fill="rgb(100%, 100%, 100%)" d="M 159.789062 47.917969 C 159.941406 48.105469 160.207031 48.265625 160.636719 48.125 C 161.378906 47.886719 162.285156 47.714844 162.613281 47.070312 C 161.636719 47.203125 160.847656 47.28125 160.105469 47.421875 C 159.753906 47.492188 159.621094 47.714844 159.789062 47.917969 " fill-opacity="1" fill-rule="nonzero"/><path fill="rgb(100%, 100%, 100%)" d="M 275.222656 61.683594 C 275.140625 62.09375 275.46875 62.449219 275.796875 62.355469 C 276.269531 62.21875 276.253906 61.960938 276.355469 61.730469 C 276.542969 61.320312 275.984375 61.046875 275.828125 60.636719 C 275.207031 61 275.28125 61.355469 275.222656 61.683594 " fill-opacity="1" fill-rule="nonzero"/><path fill="rgb(100%, 100%, 100%)" d="M 93.542969 106.691406 C 93.511719 106.757812 93.65625 106.890625 93.785156 106.921875 C 94.84375 107.164062 95.941406 107.214844 97.453125 107.039062 C 96.132812 106.707031 95.101562 106.53125 93.964844 106.554688 C 93.8125 106.558594 93.570312 106.632812 93.542969 106.691406 " fill-opacity="1" fill-rule="nonzero"/><path fill="rgb(100%, 100%, 100%)" d="M 125.535156 107.191406 C 125.40625 107.207031 125.261719 107.328125 125.238281 107.40625 C 125.214844 107.484375 125.292969 107.617188 125.410156 107.652344 C 125.714844 107.742188 126.0625 107.792969 126.367188 107.851562 C 126.878906 107.808594 127.320312 107.773438 127.761719 107.730469 C 127.816406 107.722656 127.871094 107.65625 127.886719 107.613281 C 127.902344 107.574219 127.886719 107.507812 127.839844 107.496094 C 127.132812 107.261719 126.382812 107.105469 125.535156 107.191406 " fill-opacity="1" fill-rule="nonzero"/><path fill="rgb(100%, 100%, 100%)" d="M 108.75 106.71875 C 108.632812 106.683594 108.359375 106.710938 108.253906 106.761719 C 107.910156 106.941406 107.78125 107.175781 107.894531 107.421875 C 107.992188 107.632812 108.320312 107.71875 108.746094 107.71875 C 108.902344 107.703125 109.105469 107.710938 109.261719 107.671875 C 109.5 107.609375 109.828125 107.539062 109.890625 107.4375 C 109.953125 107.335938 109.773438 107.164062 109.605469 107.066406 C 109.367188 106.925781 109.0625 106.808594 108.75 106.71875 " fill-opacity="1" fill-rule="nonzero"/><path fill="rgb(100%, 100%, 100%)" d="M 158.960938 44.375 C 159.046875 44.378906 159.152344 44.242188 159.25 44.167969 C 158.148438 44.230469 156.917969 43.78125 155.972656 44.410156 C 155.9375 44.433594 155.96875 44.527344 156.019531 44.542969 C 157.070312 44.871094 157.960938 44.34375 158.960938 44.375 " fill-opacity="1" fill-rule="nonzero"/><path fill="rgb(100%, 100%, 100%)" d="M 287.027344 91.105469 C 286.664062 91.097656 286.226562 91.09375 286.074219 91.316406 C 285.945312 91.507812 286.59375 91.894531 287.085938 91.925781 C 287.511719 91.949219 287.761719 91.820312 287.824219 91.59375 C 287.859375 91.316406 287.574219 91.121094 287.027344 91.105469 " fill-opacity="1" fill-rule="nonzero"/><path fill="rgb(100%, 100%, 100%)" d="M 142.910156 104.65625 C 141.734375 104.613281 140.5625 104.574219 139.390625 104.535156 C 139.378906 104.585938 139.367188 104.636719 139.355469 104.691406 C 139.972656 104.710938 140.59375 104.730469 141.214844 104.753906 C 141.777344 104.773438 142.34375 104.792969 142.914062 104.808594 C 142.910156 104.757812 142.910156 104.707031 142.910156 104.65625 " fill-opacity="1" fill-rule="nonzero"/><path fill="rgb(100%, 100%, 100%)" d="M 142.53125 105.726562 C 142.535156 105.796875 142.707031 105.914062 142.847656 105.933594 C 143.511719 106.027344 144.144531 105.992188 144.710938 105.753906 C 144.171875 105.476562 143.496094 105.523438 142.847656 105.535156 C 142.730469 105.535156 142.53125 105.660156 142.53125 105.726562 " fill-opacity="1" fill-rule="nonzero"/><path fill="rgb(100%, 100%, 100%)" d="M 180.675781 45.378906 C 181.355469 45.277344 182.015625 45.144531 182.683594 45.019531 C 182.632812 44.957031 182.578125 44.886719 182.527344 44.824219 C 181.890625 44.820312 181.246094 44.800781 180.617188 44.832031 C 180.25 44.847656 179.90625 44.976562 179.992188 45.207031 C 180.054688 45.367188 180.421875 45.414062 180.675781 45.378906 " fill-opacity="1" fill-rule="nonzero"/><path fill="rgb(100%, 100%, 100%)" d="M 133.125 107.578125 C 132.929688 107.570312 132.839844 107.5625 132.75 107.566406 C 132.480469 107.574219 132.125 107.582031 132.222656 107.769531 C 132.273438 107.867188 132.621094 107.953125 132.855469 107.972656 C 133.105469 107.996094 133.386719 107.941406 133.648438 107.902344 C 133.71875 107.894531 133.828125 107.824219 133.816406 107.808594 C 133.753906 107.738281 133.675781 107.648438 133.554688 107.617188 C 133.402344 107.578125 133.203125 107.582031 133.125 107.578125 " fill-opacity="1" fill-rule="nonzero"/><g clip-path="url(#clip-1)"><path fill="rgb(100%, 100%, 100%)" d="M 163.203125 42.1875 C 163.433594 42.132812 163.769531 42.035156 163.792969 41.941406 C 163.828125 41.78125 163.464844 41.769531 163.148438 41.738281 C 162.941406 41.746094 162.671875 41.742188 162.402344 41.761719 C 162.121094 41.785156 161.855469 41.851562 161.871094 42.027344 C 161.886719 42.1875 162.136719 42.273438 162.417969 42.273438 C 162.679688 42.273438 162.964844 42.246094 163.203125 42.1875 " fill-opacity="1" fill-rule="nonzero"/></g><path fill="rgb(100%, 100%, 100%)" d="M 268.335938 56.09375 C 268.394531 56.277344 268.722656 56.253906 268.972656 56.160156 C 269.261719 56.054688 269.535156 55.9375 269.835938 55.816406 C 269.429688 55.652344 269.042969 55.648438 268.726562 55.75 C 268.527344 55.8125 268.300781 55.988281 268.335938 56.09375 " fill-opacity="1" fill-rule="nonzero"/><g clip-path="url(#clip-2)"><path fill="rgb(100%, 100%, 100%)" d="M 146.195312 108.117188 C 146.023438 108.140625 145.757812 108.136719 145.707031 108.191406 C 145.53125 108.375 145.820312 108.453125 146.09375 108.476562 C 146.25 108.492188 146.535156 108.464844 146.578125 108.414062 C 146.726562 108.238281 146.472656 108.164062 146.195312 108.117188 " fill-opacity="1" fill-rule="nonzero"/></g><g clip-path="url(#clip-3)"><path fill="rgb(100%, 100%, 100%)" d="M 72.515625 108.046875 C 72.585938 108.035156 72.695312 107.972656 72.6875 107.945312 C 72.546875 107.496094 71.816406 107.59375 71.273438 107.515625 C 71.503906 107.808594 71.664062 108.148438 72.515625 108.046875 " fill-opacity="1" fill-rule="nonzero"/></g><path fill="rgb(100%, 100%, 100%)" d="M 267.515625 98.699219 C 267.613281 98.773438 267.707031 98.914062 267.902344 98.984375 C 268.171875 99.085938 268.523438 98.886719 268.507812 98.65625 C 268.496094 98.496094 268.34375 98.390625 268.042969 98.390625 C 267.742188 98.386719 267.570312 98.488281 267.515625 98.699219 " fill-opacity="1" fill-rule="nonzero"/><path fill="rgb(100%, 100%, 100%)" d="M 264.554688 97.890625 C 264.4375 97.902344 264.359375 98.023438 264.261719 98.09375 C 264.359375 98.300781 264.617188 98.421875 265.019531 98.445312 C 265.105469 98.453125 265.246094 98.441406 265.273438 98.414062 C 265.339844 98.339844 265.441406 98.234375 265.390625 98.171875 C 265.242188 97.996094 264.972656 97.847656 264.554688 97.890625 " fill-opacity="1" fill-rule="nonzero"/><path fill="rgb(100%, 100%, 100%)" d="M 291.773438 78.917969 C 291.714844 79.078125 291.984375 79.148438 292.28125 79.152344 C 292.625 79.125 292.722656 78.996094 292.710938 78.84375 C 292.695312 78.691406 292.527344 78.546875 292.21875 78.609375 C 292.019531 78.648438 291.816406 78.800781 291.773438 78.917969 " fill-opacity="1" fill-rule="nonzero"/><path fill="rgb(100%, 100%, 100%)" d="M 85.273438 44.957031 C 85.214844 44.917969 85.171875 44.851562 85.097656 44.84375 C 84.59375 44.761719 84.167969 44.875 83.773438 45.023438 C 83.703125 45.050781 83.636719 45.109375 83.644531 45.152344 C 83.644531 45.195312 83.722656 45.257812 83.796875 45.269531 C 84.257812 45.351562 85.21875 45.140625 85.273438 44.957031 " fill-opacity="1" fill-rule="nonzero"/><path fill="rgb(100%, 100%, 100%)" d="M 292.839844 72.015625 C 292.699219 71.972656 292.546875 71.886719 292.421875 71.898438 C 292.308594 71.910156 292.234375 72.023438 292.140625 72.09375 C 292.28125 72.136719 292.421875 72.179688 292.5625 72.222656 C 292.65625 72.15625 292.75 72.085938 292.839844 72.015625 " fill-opacity="1" fill-rule="nonzero"/><path fill="rgb(100%, 100%, 100%)" d="M 127.617188 106.539062 C 127.296875 106.476562 126.929688 106.476562 126.578125 106.460938 C 126.496094 106.453125 126.410156 106.484375 126.328125 106.5 C 126.390625 106.53125 126.441406 106.570312 126.515625 106.589844 C 126.816406 106.683594 127.78125 106.574219 127.617188 106.539062 " fill-opacity="1" fill-rule="nonzero"/><path fill="rgb(100%, 100%, 100%)" d="M 274.761719 51.867188 C 274.730469 51.855469 274.6875 51.867188 274.65625 51.855469 C 274.621094 51.863281 274.585938 51.859375 274.550781 51.867188 C 274.59375 51.875 274.632812 51.875 274.675781 51.878906 C 274.703125 51.867188 274.734375 51.875 274.761719 51.867188 " fill-opacity="1" fill-rule="nonzero"/><path fill="rgb(100%, 100%, 100%)" d="M 276.746094 51.753906 C 276.71875 51.699219 276.429688 51.65625 276.257812 51.65625 C 275.730469 51.652344 275.222656 51.71875 274.761719 51.867188 C 275.242188 51.984375 275.738281 52.042969 276.265625 51.996094 C 276.523438 51.96875 276.84375 51.941406 276.746094 51.753906 " fill-opacity="1" fill-rule="nonzero"/><path fill="rgb(100%, 100%, 100%)" d="M 283.789062 63.617188 C 283.988281 63.496094 283.757812 63.3125 283.453125 63.351562 C 283.300781 63.371094 283.101562 63.441406 283.066406 63.511719 C 283.039062 63.566406 283.234375 63.648438 283.335938 63.71875 C 283.488281 63.683594 283.691406 63.671875 283.789062 63.617188 " fill-opacity="1" fill-rule="nonzero"/></svg>